<svg width="306" height="92" viewBox="0 0 306 92" fill="none" xmlns="http://www.w3.org/2000/svg">
<g id="AboutNav">
<rect id="Rectangle 6" x="2.5" y="2.5" width="301" height="84" rx="42" fill="black" stroke="white" stroke-width="5"/>
<path id="About" d="M81.9792 66H75.8353C75.0673 66 74.8113 65.552 75.0673 64.656L85.1793 26.192C85.4779 25.296 86.1179 24.848 87.0993 24.848H95.6113C96.6779 24.848 97.3179 25.296 97.5313 26.192L107.643 64.656C107.899 65.552 107.643 66 106.875 66H100.731C100.262 66 99.9419 65.9147 99.7713 65.744C99.6006 65.5307 99.4726 65.168 99.3873 64.656L97.5953 57.616H85.1153L83.3233 64.656C83.2379 65.168 83.0886 65.5307 82.8753 65.744C82.7046 65.9147 82.4059 66 81.9792 66ZM91.2593 32.592L86.6513 51.088H96.1233L91.5153 32.592H91.2593ZM121.508 58.96H128.036C129.402 58.96 130.362 58.6827 130.916 58.128C131.514 57.5307 131.812 56.5493 131.812 55.184V44.048C131.812 42.6827 131.514 41.7227 130.916 41.168C130.362 40.5707 129.402 40.272 128.036 40.272H125.22C122.276 40.272 120.804 41.8933 120.804 45.136V58.256C120.804 58.7253 121.039 58.96 121.508 58.96ZM112.676 64.656V22.352C112.676 21.456 113.124 21.008 114.02 21.008H119.46C120.356 21.008 120.804 21.456 120.804 22.352V36.752H121.06C121.53 35.6 122.362 34.7253 123.556 34.128C124.751 33.5307 126.01 33.232 127.332 33.232H129.38C132.751 33.232 135.354 34.128 137.188 35.92C139.023 37.712 139.94 40.2933 139.94 43.664V55.568C139.94 58.9387 139.023 61.52 137.188 63.312C135.354 65.104 132.751 66 129.38 66H114.02C113.124 66 112.676 65.552 112.676 64.656ZM161.98 66H156.284C152.913 66 150.31 65.104 148.476 63.312C146.641 61.52 145.724 58.9387 145.724 55.568V43.792C145.724 40.4213 146.641 37.84 148.476 36.048C150.31 34.256 152.913 33.36 156.284 33.36H161.98C165.308 33.36 167.889 34.2773 169.724 36.112C171.601 37.904 172.54 40.464 172.54 43.792V55.568C172.54 58.896 171.601 61.4773 169.724 63.312C167.889 65.104 165.308 66 161.98 66ZM157.5 59.024H160.764C162.129 59.024 163.089 58.7467 163.644 58.192C164.241 57.6373 164.54 56.6773 164.54 55.312V44.048C164.54 42.6827 164.241 41.7227 163.644 41.168C163.089 40.6133 162.129 40.336 160.764 40.336H157.5C156.134 40.336 155.174 40.6133 154.62 41.168C154.065 41.7227 153.788 42.6827 153.788 44.048V55.312C153.788 56.6773 154.065 57.6373 154.62 58.192C155.174 58.7467 156.134 59.024 157.5 59.024ZM190.702 66H188.59C185.305 66 182.809 65.104 181.102 63.312C179.438 61.52 178.606 58.9387 178.606 55.568V34.704C178.606 33.808 179.054 33.36 179.95 33.36H185.39C186.286 33.36 186.734 33.808 186.734 34.704V55.184C186.734 56.5493 187.012 57.5307 187.566 58.128C188.164 58.6827 189.124 58.96 190.446 58.96H192.814C195.758 58.96 197.23 57.3387 197.23 54.096V34.704C197.23 33.808 197.678 33.36 198.574 33.36H203.95C204.889 33.36 205.358 33.808 205.358 34.704V64.656C205.358 65.552 204.889 66 203.95 66H198.574C197.678 66 197.23 65.552 197.23 64.656V62.544H196.974C196.505 63.696 195.673 64.5707 194.478 65.168C193.284 65.7227 192.025 66 190.702 66ZM213.13 40.4H210.57C210.058 40.4 209.696 40.3147 209.482 40.144C209.312 39.9733 209.226 39.632 209.226 39.12V34.704C209.226 33.808 209.674 33.36 210.57 33.36H213.13C213.6 33.36 213.834 33.1253 213.834 32.656V26.576C213.834 25.68 214.304 25.232 215.242 25.232H220.618C221.514 25.232 221.962 25.68 221.962 26.576V32.656C221.962 33.1253 222.218 33.36 222.73 33.36H227.722C228.618 33.36 229.066 33.808 229.066 34.704V39.12C229.066 39.5893 228.96 39.9307 228.746 40.144C228.576 40.3147 228.234 40.4 227.722 40.4H222.73C222.218 40.4 221.962 40.6347 221.962 41.104V55.248C221.962 56.5707 222.261 57.5307 222.858 58.128C223.456 58.6827 224.437 58.96 225.802 58.96H228.362C229.258 58.96 229.706 59.408 229.706 60.304V64.72C229.706 65.1893 229.6 65.5307 229.386 65.744C229.216 65.9147 228.874 66 228.362 66H224.458C221.088 66 218.464 65.104 216.586 63.312C214.752 61.52 213.834 58.96 213.834 55.632V41.104C213.834 40.6347 213.6 40.4 213.13 40.4Z" fill="white"/>
</g>
</svg>
