<svg width="476" height="474" viewBox="0 0 476 474" fill="none" xmlns="http://www.w3.org/2000/svg">
<g id="Clock" filter="url(#filter0_d_41_3739)">
<g id="ClockNumerals">
<path class="romanNumerals" id="I" d="M327.137 75.9017L327.875 74.6234L336.698 79.7174L335.96 80.9957L332.894 79.6826C332.117 80.9801 331.328 82.2983 330.527 83.6373C329.747 84.9883 328.967 86.3393 328.187 87.6903L327.305 89.218C326.537 90.5482 325.763 91.8888 324.983 93.2398C324.236 94.582 323.483 95.9346 322.724 97.2976L325.394 99.2965L324.656 100.575L315.833 95.4808L316.571 94.2025L319.637 95.5156C320.435 94.2302 321.223 92.912 322.003 91.561C322.783 90.21 323.563 88.859 324.343 87.508L325.225 85.9803C326.005 84.6293 326.779 83.2887 327.547 81.9585C328.327 80.6075 329.081 79.2549 329.807 77.9006L327.137 75.9017Z" fill="white"/>
<path class="romanNumerals" id="II" d="M391.062 138.469L392.34 137.731L397.434 146.554L396.156 147.292L394.157 144.622C392.836 145.357 391.493 146.105 390.13 146.864C388.779 147.644 387.428 148.424 386.077 149.204L384.55 150.086C383.22 150.854 381.879 151.628 380.528 152.408C379.21 153.197 377.881 153.991 376.542 154.792L377.855 157.858L376.577 158.596L371.483 149.773L372.761 149.035L374.76 151.706C376.094 150.991 377.436 150.244 378.787 149.464C380.138 148.684 381.489 147.904 382.84 147.124L384.367 146.242C385.718 145.462 387.059 144.688 388.389 143.92C389.74 143.14 391.069 142.345 392.375 141.536L391.062 138.469ZM397.742 150.039L399.02 149.301L404.114 158.124L402.836 158.862L400.837 156.192C399.515 156.927 398.173 157.674 396.81 158.433C395.459 159.213 394.108 159.993 392.757 160.773L391.23 161.655C389.899 162.423 388.559 163.197 387.208 163.977C385.889 164.766 384.561 165.561 383.222 166.362L384.535 169.428L383.257 170.166L378.163 161.343L379.441 160.605L381.44 163.275C382.773 162.561 384.116 161.814 385.467 161.034C386.818 160.254 388.169 159.474 389.52 158.694L391.047 157.812C392.398 157.032 393.739 156.258 395.069 155.49C396.42 154.71 397.749 153.915 399.055 153.105L397.742 150.039Z" fill="white"/>
<path class="romanNumerals" id="III" d="M419.685 218.536H421.161V228.724H419.685L419.289 225.412C417.777 225.388 416.241 225.364 414.681 225.34C413.121 225.34 411.561 225.34 410.001 225.34H408.237C406.701 225.34 405.153 225.34 403.593 225.34C402.057 225.364 400.509 225.388 398.949 225.412L398.553 228.724H397.077V218.536H398.553L398.949 221.848C400.461 221.896 401.997 221.92 403.557 221.92C405.117 221.92 406.677 221.92 408.237 221.92H410.001C411.561 221.92 413.109 221.92 414.645 221.92C416.205 221.92 417.753 221.896 419.289 221.848L419.685 218.536ZM419.685 231.895H421.161V242.083H419.685L419.289 238.771C417.777 238.747 416.241 238.723 414.681 238.699C413.121 238.699 411.561 238.699 410.001 238.699H408.237C406.701 238.699 405.153 238.699 403.593 238.699C402.057 238.723 400.509 238.747 398.949 238.771L398.553 242.083H397.077V231.895H398.553L398.949 235.207C400.461 235.255 401.997 235.279 403.557 235.279C405.117 235.279 406.677 235.279 408.237 235.279H410.001C411.561 235.279 413.109 235.279 414.645 235.279C416.205 235.279 417.753 235.255 419.289 235.207L419.685 231.895ZM419.685 245.254H421.161V255.442H419.685L419.289 252.13C417.777 252.106 416.241 252.082 414.681 252.058C413.121 252.058 411.561 252.058 410.001 252.058H408.237C406.701 252.058 405.153 252.058 403.593 252.058C402.057 252.082 400.509 252.106 398.949 252.13L398.553 255.442H397.077V245.254H398.553L398.949 248.566C400.461 248.614 401.997 248.638 403.557 248.638C405.117 248.638 406.677 248.638 408.237 248.638H410.001C411.561 248.638 413.109 248.638 414.645 248.638C416.205 248.638 417.753 248.614 419.289 248.566L419.685 245.254Z" fill="white"/>
<path class="romanNumerals" id="IV" d="M404.631 312.066L405.909 312.804L400.815 321.628L399.537 320.89L400.85 317.823C399.552 317.046 398.234 316.258 396.895 315.457C395.544 314.677 394.193 313.897 392.842 313.117L391.314 312.235C389.984 311.467 388.644 310.693 387.293 309.913C385.95 309.166 384.598 308.412 383.235 307.653L381.236 310.324L379.957 309.586L385.051 300.762L386.33 301.5L385.017 304.567C386.302 305.364 387.62 306.153 388.971 306.933C390.322 307.713 391.673 308.493 393.024 309.273L394.552 310.155C395.903 310.935 397.244 311.709 398.574 312.477C399.925 313.257 401.277 314.01 402.632 314.737L404.631 312.066ZM398.473 322.732L399.751 323.47L394.837 331.981L393.434 331.171L394.882 328.016L376.924 324.632L388.91 338.287L390.806 335.723L392.209 336.533L388.051 343.735L386.773 342.997L387.965 340.069L372.34 322.276L373.132 320.904L396.842 324.908L398.473 322.732Z" fill="white"/>
<path class="romanNumerals" id="V" d="M335.463 388.643L336.201 389.922L327.69 394.836L326.88 393.433L329.711 391.424L315.851 379.514L319.405 397.333L322.328 396.061L323.138 397.464L315.936 401.622L315.198 400.343L317.695 398.403L313.059 375.182L314.431 374.39L332.963 389.713L335.463 388.643Z" fill="white"/>
<path class="romanNumerals" id="VI" d="M256.769 418.608V420.084H246.941V418.464L250.397 418.14L244.349 400.896L238.517 418.104L241.685 418.464V420.084H233.369V418.608L236.501 418.176L244.097 395.748H245.681L254.069 418.284L256.769 418.608ZM231.467 418.608V420.084H221.279V418.608L224.591 418.212C224.615 416.7 224.639 415.164 224.663 413.604C224.663 412.044 224.663 410.484 224.663 408.924V407.16C224.663 405.624 224.663 404.076 224.663 402.516C224.639 400.98 224.615 399.432 224.591 397.872L221.279 397.476V396H231.467V397.476L228.155 397.872C228.107 399.384 228.083 400.92 228.083 402.48C228.083 404.04 228.083 405.6 228.083 407.16V408.924C228.083 410.484 228.083 412.032 228.083 413.568C228.083 415.128 228.107 416.676 228.155 418.212L231.467 418.608Z" fill="white"/>
<path class="romanNumerals" id="VII" d="M171.685 406.725L170.947 408.003L162.436 403.089L163.246 401.686L166.401 403.133L169.785 385.175L156.131 397.162L158.694 399.058L157.884 400.461L150.682 396.303L151.42 395.025L154.349 396.216L172.141 380.591L173.513 381.383L169.509 405.094L171.685 406.725ZM149.773 394.074L149.035 395.352L140.212 390.258L140.95 388.98L144.017 390.293C144.793 388.995 145.582 387.677 146.383 386.338C147.163 384.987 147.943 383.636 148.723 382.285L149.605 380.757C150.373 379.427 151.147 378.087 151.927 376.736C152.674 375.393 153.427 374.041 154.187 372.678L151.516 370.679L152.254 369.401L161.077 374.495L160.339 375.773L157.273 374.46C156.475 375.745 155.687 377.063 154.907 378.414C154.127 379.765 153.347 381.116 152.567 382.467L151.685 383.995C150.905 385.346 150.131 386.687 149.363 388.017C148.583 389.368 147.829 390.72 147.103 392.075L149.773 394.074ZM138.204 387.394L137.466 388.672L128.643 383.578L129.381 382.3L132.447 383.613C133.224 382.316 134.013 380.997 134.813 379.658C135.593 378.307 136.373 376.956 137.153 375.605L138.035 374.078C138.803 372.747 139.577 371.407 140.357 370.056C141.105 368.714 141.858 367.361 142.617 365.998L139.947 363.999L140.685 362.721L149.508 367.815L148.77 369.093L145.703 367.78C144.906 369.065 144.117 370.384 143.337 371.735C142.557 373.086 141.777 374.437 140.997 375.788L140.115 377.315C139.335 378.666 138.561 380.007 137.793 381.337C137.013 382.688 136.26 384.041 135.533 385.395L138.204 387.394Z" fill="white"/>
<path class="romanNumerals" id="VIII" d="M103.678 356.106L102.399 356.844L97.4855 348.333L98.8885 347.523L100.897 350.354L112.807 336.494L94.9882 340.047L96.2605 342.971L94.8575 343.781L90.6995 336.579L91.9777 335.841L93.9179 338.337L117.139 333.702L117.931 335.073L102.608 353.606L103.678 356.106ZM91.0268 334.194L89.7486 334.932L84.6546 326.109L85.9328 325.371L87.9318 328.041C89.2532 327.306 90.5954 326.559 91.9584 325.799C93.3094 325.019 94.6604 324.239 96.0114 323.459L97.5391 322.577C98.8693 321.809 100.21 321.035 101.561 320.255C102.879 319.467 104.208 318.672 105.547 317.871L104.234 314.805L105.512 314.067L110.606 322.89L109.328 323.628L107.329 320.958C105.995 321.672 104.653 322.419 103.302 323.199C101.951 323.979 100.6 324.759 99.2491 325.539L97.7214 326.421C96.3704 327.201 95.0298 327.975 93.6996 328.743C92.3486 329.523 91.02 330.318 89.7138 331.128L91.0268 334.194ZM84.3471 322.624L83.0689 323.362L77.9749 314.539L79.2531 313.801L81.2521 316.472C82.5735 315.736 83.9157 314.989 85.2787 314.23C86.6297 313.45 87.9807 312.67 89.3317 311.89L90.8594 311.008C92.1896 310.24 93.5302 309.466 94.8812 308.686C96.1994 307.897 97.5281 307.102 98.8671 306.302L97.554 303.235L98.8323 302.497L103.926 311.32L102.648 312.058L100.649 309.388C99.3156 310.103 97.9734 310.85 96.6224 311.63C95.2714 312.41 93.9204 313.19 92.5694 313.97L91.0417 314.852C89.6907 315.632 88.3501 316.406 87.0199 317.174C85.6689 317.954 84.3403 318.749 83.0341 319.558L84.3471 322.624ZM77.6675 311.055L76.3892 311.793L71.2952 302.97L72.5735 302.232L74.5724 304.902C75.8938 304.167 77.2361 303.42 78.5991 302.66C79.9501 301.88 81.3011 301.1 82.6521 300.32L84.1797 299.438C85.5099 298.67 86.8505 297.896 88.2015 297.116C89.5198 296.328 90.8484 295.533 92.1874 294.732L90.8743 291.666L92.1526 290.928L97.2466 299.751L95.9683 300.489L93.9694 297.819C92.6359 298.533 91.2937 299.28 89.9427 300.06C88.5917 300.84 87.2407 301.62 85.8897 302.4L84.3621 303.282C83.0111 304.062 81.6704 304.836 80.3402 305.604C78.9892 306.384 77.6606 307.179 76.3544 307.989L77.6675 311.055Z" fill="white"/>
<path class="romanNumerals" id="IX" d="M57.392 253.756L55.916 253.756L55.916 243.568L57.392 243.568L57.788 246.88C59.3 246.904 60.836 246.928 62.396 246.952C63.956 246.952 65.516 246.952 67.076 246.952L68.84 246.952C70.376 246.952 71.924 246.952 73.484 246.952C75.02 246.928 76.568 246.904 78.128 246.88L78.524 243.568L80 243.568L80 253.756L78.524 253.756L78.128 250.444C76.616 250.396 75.08 250.372 73.52 250.372C71.96 250.372 70.4 250.372 68.84 250.372L67.076 250.372C65.516 250.372 63.968 250.372 62.432 250.372C60.872 250.372 59.324 250.396 57.788 250.444L57.392 253.756ZM57.392 241.296L55.916 241.296L55.916 231.18L57.392 231.18L57.752 234.348L65.456 229.74L57.824 224.952L57.392 228.012L55.916 228.012L55.916 219.768L57.392 219.768L57.788 222.936L66.932 228.84L78.164 222.072L78.524 218.976L80 218.976L80 229.164L78.524 229.164L78.128 225.852L69.776 230.892L78.128 236.184L78.524 233.376L80 233.376L80 241.62L78.524 241.62L78.092 238.2L68.336 231.756L57.752 238.128L57.392 241.296Z" fill="white"/>
<path class="romanNumerals" id="X" d="M76.5154 153.853L75.2372 153.115L80.2952 144.354L81.5734 145.092L80.3012 148.016L89.2771 147.877L85.0616 139.915L83.1574 142.349L81.8792 141.611L86.0012 134.471L87.2794 135.209L86.0384 138.151L91.0053 147.836L104.117 147.59L105.976 145.089L107.255 145.827L102.161 154.65L100.882 153.912L102.195 150.846L92.4423 151.035L97.0293 159.794L98.7763 157.56L100.055 158.298L95.9325 165.437L94.6543 164.699L95.9902 161.522L90.7632 151.063L78.4112 151.289L76.5154 153.853Z" fill="white"/>
<path class="romanNumerals" id="XI" d="M131.8 88.1709L131.062 86.8927L139.823 81.8347L140.561 83.1129L137.998 85.0087L145.84 89.3766L146.171 80.3731L143.305 81.5289L142.567 80.2507L149.706 76.1287L150.444 77.4069L147.899 79.3339L147.358 90.2048L158.835 96.548L161.696 95.3118L162.434 96.59L153.611 101.684L152.873 100.406L155.543 98.4068L147.003 93.6938L146.596 103.573L149.225 102.512L149.963 103.79L142.824 107.912L142.086 106.634L144.832 104.55L145.534 92.8787L134.724 86.8987L131.8 88.1709ZM152.796 76.0491L152.058 74.7708L160.881 69.6768L161.619 70.9551L158.949 72.954C159.684 74.2754 160.431 75.6177 161.191 76.9807C161.971 78.3317 162.751 79.6827 163.531 81.0337L164.413 82.5613C165.181 83.8915 165.955 85.2321 166.735 86.5831C167.523 87.9014 168.318 89.23 169.119 90.569L172.185 89.2559L172.923 90.5342L164.1 95.6282L163.362 94.3499L166.032 92.351C165.318 91.0175 164.571 89.6753 163.791 88.3243C163.011 86.9733 162.231 85.6223 161.451 84.2713L160.569 82.7437C159.789 81.3927 159.015 80.052 158.247 78.7218C157.467 77.3708 156.672 76.0422 155.862 74.736L152.796 76.0491Z" fill="white"/>
<path class="romanNumerals" id="XII" d="M213.763 57.392V55.916H223.879V57.392L220.711 57.752L225.319 65.456L230.107 57.824L227.047 57.392V55.916H235.291V57.392L232.123 57.788L226.219 66.932L232.987 78.164L236.083 78.524V80H225.895V78.524L229.207 78.128L224.167 69.776L218.875 78.128L221.683 78.524V80H213.439V78.524L216.859 78.092L223.303 68.336L216.931 57.752L213.763 57.392ZM238.007 57.392V55.916H248.195V57.392L244.883 57.788C244.859 59.3 244.835 60.836 244.811 62.396C244.811 63.956 244.811 65.516 244.811 67.076V68.84C244.811 70.376 244.811 71.924 244.811 73.484C244.835 75.02 244.859 76.568 244.883 78.128L248.195 78.524V80H238.007V78.524L241.319 78.128C241.367 76.616 241.391 75.08 241.391 73.52C241.391 71.96 241.391 70.4 241.391 68.84V67.076C241.391 65.516 241.391 63.968 241.391 62.432C241.391 60.872 241.367 59.324 241.319 57.788L238.007 57.392ZM251.366 57.392V55.916H261.554V57.392L258.242 57.788C258.218 59.3 258.194 60.836 258.17 62.396C258.17 63.956 258.17 65.516 258.17 67.076V68.84C258.17 70.376 258.17 71.924 258.17 73.484C258.194 75.02 258.218 76.568 258.242 78.128L261.554 78.524V80H251.366V78.524L254.678 78.128C254.726 76.616 254.75 75.08 254.75 73.52C254.75 71.96 254.75 70.4 254.75 68.84V67.076C254.75 65.516 254.75 63.968 254.75 62.432C254.75 60.872 254.726 59.324 254.678 57.788L251.366 57.392Z" fill="white"/>
</g>
<g id="InnerClock">
<circle id="Ellipse 2" cx="238.5" cy="237.5" r="145.5" stroke="white" stroke-width="5"/>
<circle id="Ellipse 3" cx="238.5" cy="237.5" r="130.5" stroke="white" stroke-width="5"/>
<g id="Radial">
<line id="Line 14" y1="-2.5" x2="13.0143" y2="-2.5" transform="matrix(-1 0 0 1 108.014 237.5)" stroke="white" stroke-width="5"/>
<line id="Line 14_2" y1="-2.5" x2="13.0143" y2="-2.5" transform="matrix(-0.965926 -0.258819 -0.258819 0.965926 112.46 203.728)" stroke="white" stroke-width="5"/>
<line id="Line 14_3" y1="-2.5" x2="13.0143" y2="-2.5" transform="matrix(-0.866026 -0.5 -0.5 0.866026 125.496 172.258)" stroke="white" stroke-width="5"/>
<line id="Line 14_4" y1="-2.5" x2="13.0143" y2="-2.5" transform="matrix(-0.707107 -0.707107 -0.707107 0.707107 146.232 145.233)" stroke="white" stroke-width="5"/>
<line id="Line 14_5" y1="-2.5" x2="13.0143" y2="-2.5" transform="matrix(-0.5 -0.866026 -0.866026 0.5 173.257 124.497)" stroke="white" stroke-width="5"/>
<line id="Line 14_6" y1="-2.5" x2="13.0143" y2="-2.5" transform="matrix(-0.258819 -0.965926 -0.965926 0.258819 204.728 111.461)" stroke="white" stroke-width="5"/>
<line id="Line 14_7" y1="-2.5" x2="13.0143" y2="-2.5" transform="matrix(0 -1 -1 0 238.5 107.015)" stroke="white" stroke-width="5"/>
<line id="Line 14_8" y1="-2.5" x2="13.0143" y2="-2.5" transform="matrix(0.258819 -0.965926 -0.965926 -0.258819 272.272 111.461)" stroke="white" stroke-width="5"/>
<line id="Line 14_9" y1="-2.5" x2="13.0143" y2="-2.5" transform="matrix(0.5 -0.866026 -0.866026 -0.5 303.743 124.497)" stroke="white" stroke-width="5"/>
<line id="Line 14_10" y1="-2.5" x2="13.0143" y2="-2.5" transform="matrix(0.707107 -0.707107 -0.707107 -0.707107 330.767 145.233)" stroke="white" stroke-width="5"/>
<line id="Line 14_11" y1="-2.5" x2="13.0143" y2="-2.5" transform="matrix(0.866026 -0.5 -0.5 -0.866026 351.504 172.258)" stroke="white" stroke-width="5"/>
<line id="Line 14_12" y1="-2.5" x2="13.0143" y2="-2.5" transform="matrix(0.965926 -0.258819 -0.258819 -0.965926 364.539 203.728)" stroke="white" stroke-width="5"/>
<line id="Line 14_13" y1="-2.5" x2="13.0143" y2="-2.5" transform="matrix(1 0 0 -1 368.986 237.5)" stroke="white" stroke-width="5"/>
<line id="Line 14_14" y1="-2.5" x2="13.0143" y2="-2.5" transform="matrix(0.965926 0.258819 0.258819 -0.965926 364.539 271.273)" stroke="white" stroke-width="5"/>
<line id="Line 14_15" y1="-2.5" x2="13.0143" y2="-2.5" transform="matrix(0.866026 0.5 0.5 -0.866026 351.504 302.743)" stroke="white" stroke-width="5"/>
<line id="Line 14_16" y1="-2.5" x2="13.0143" y2="-2.5" transform="matrix(0.707107 0.707107 0.707107 -0.707107 330.767 329.768)" stroke="white" stroke-width="5"/>
<line id="Line 14_17" y1="-2.5" x2="13.0143" y2="-2.5" transform="matrix(0.5 0.866026 0.866026 -0.5 303.743 350.504)" stroke="white" stroke-width="5"/>
<line id="Line 14_18" y1="-2.5" x2="13.0143" y2="-2.5" transform="matrix(0.258819 0.965926 0.965926 -0.258819 272.272 363.54)" stroke="white" stroke-width="5"/>
<line id="Line 14_19" y1="-2.5" x2="13.0143" y2="-2.5" transform="matrix(0 1 1 0 238.5 367.986)" stroke="white" stroke-width="5"/>
<line id="Line 14_20" y1="-2.5" x2="13.0143" y2="-2.5" transform="matrix(-0.258819 0.965926 0.965926 0.258819 204.728 363.54)" stroke="white" stroke-width="5"/>
<line id="Line 14_21" y1="-2.5" x2="13.0143" y2="-2.5" transform="matrix(-0.5 0.866026 0.866026 0.5 173.257 350.504)" stroke="white" stroke-width="5"/>
<line id="Line 14_22" y1="-2.5" x2="13.0143" y2="-2.5" transform="matrix(-0.707107 0.707107 0.707107 0.707107 146.232 329.768)" stroke="white" stroke-width="5"/>
<line id="Line 14_23" y1="-2.5" x2="13.0143" y2="-2.5" transform="matrix(-0.866026 0.5 0.5 0.866026 125.496 302.743)" stroke="white" stroke-width="5"/>
<line id="Line 14_24" y1="-2.5" x2="13.0143" y2="-2.5" transform="matrix(-0.965926 0.258819 0.258819 0.965926 112.46 271.273)" stroke="white" stroke-width="5"/>
</g>
</g>
<g id="OuterClock">
<path id="HalfDownClock" d="M456 236C456 293.817 433.032 349.266 392.149 390.149C351.266 431.032 295.817 454 238 454C180.183 454 124.734 431.032 83.8507 390.149C42.9678 349.266 20 293.817 20 236H40.2433C40.2433 288.448 61.0783 338.749 98.1649 375.835C135.251 412.922 185.552 433.757 238 433.757C290.448 433.757 340.749 412.922 377.835 375.835C414.922 338.749 435.757 288.448 435.757 236H456Z" fill="white"/>
<g id="HalfUpClock">
<path id="Dot" d="M38.5422 238H23" stroke="white" stroke-width="3" stroke-linecap="round" stroke-linejoin="round"/>
<path id="Dot_2" d="M38.8155 227.561L23.2946 226.748" stroke="white" stroke-width="3" stroke-linecap="round" stroke-linejoin="round"/>
<path id="Dot_3" d="M39.6349 217.151L24.1778 215.526" stroke="white" stroke-width="3" stroke-linecap="round" stroke-linejoin="round"/>
<path id="Dot_4" d="M40.9977 206.798L25.6469 204.367" stroke="white" stroke-width="3" stroke-linecap="round" stroke-linejoin="round"/>
<path id="Dot_5" d="M42.9009 196.53L27.6983 193.299" stroke="white" stroke-width="3" stroke-linecap="round" stroke-linejoin="round"/>
<path id="Dot_6" d="M45.3386 186.376L30.326 182.354" stroke="white" stroke-width="3" stroke-linecap="round" stroke-linejoin="round"/>
<path id="Dot_7" d="M48.3044 176.364L33.5229 171.561" stroke="white" stroke-width="3" stroke-linecap="round" stroke-linejoin="round"/>
<path id="Dot_8" d="M51.7901 166.521L37.2802 160.951" stroke="white" stroke-width="3" stroke-linecap="round" stroke-linejoin="round"/>
<path id="Dot_9" d="M55.7862 156.873L41.5877 150.552" stroke="white" stroke-width="3" stroke-linecap="round" stroke-linejoin="round"/>
<path id="Dot_10" d="M60.2819 147.448L46.4337 140.392" stroke="white" stroke-width="3" stroke-linecap="round" stroke-linejoin="round"/>
<path id="Dot_11" d="M65.2644 138.271L51.8045 130.5" stroke="white" stroke-width="3" stroke-linecap="round" stroke-linejoin="round"/>
<path id="Dot_12" d="M70.7206 129.367L57.6858 120.903" stroke="white" stroke-width="3" stroke-linecap="round" stroke-linejoin="round"/>
<path id="Dot_13" d="M76.6352 120.762L64.0613 111.626" stroke="white" stroke-width="3" stroke-linecap="round" stroke-linejoin="round"/>
<path id="Dot_14" d="M82.9921 112.477L70.9136 102.696" stroke="white" stroke-width="3" stroke-linecap="round" stroke-linejoin="round"/>
<path id="Dot_15" d="M89.7739 104.537L78.2238 94.1369" stroke="white" stroke-width="3" stroke-linecap="round" stroke-linejoin="round"/>
<path id="Dot_16" d="M96.962 96.962L85.9721 85.9721" stroke="white" stroke-width="3" stroke-linecap="round" stroke-linejoin="round"/>
<path id="Dot_17" d="M104.537 89.7739L94.1369 78.2238" stroke="white" stroke-width="3" stroke-linecap="round" stroke-linejoin="round"/>
<path id="Dot_18" d="M112.477 82.9921L102.696 70.9136" stroke="white" stroke-width="3" stroke-linecap="round" stroke-linejoin="round"/>
<path id="Dot_19" d="M120.762 76.6352L111.626 64.0613" stroke="white" stroke-width="3" stroke-linecap="round" stroke-linejoin="round"/>
<path id="Dot_20" d="M129.367 70.7206L120.903 57.6858" stroke="white" stroke-width="3" stroke-linecap="round" stroke-linejoin="round"/>
<path id="Dot_21" d="M138.271 65.2644L130.5 51.8045" stroke="white" stroke-width="3" stroke-linecap="round" stroke-linejoin="round"/>
<path id="Dot_22" d="M147.448 60.2818L140.392 46.4336" stroke="white" stroke-width="3" stroke-linecap="round" stroke-linejoin="round"/>
<path id="Dot_23" d="M156.873 55.7862L150.552 41.5877" stroke="white" stroke-width="3" stroke-linecap="round" stroke-linejoin="round"/>
<path id="Dot_24" d="M166.521 51.7901L160.951 37.2803" stroke="white" stroke-width="3" stroke-linecap="round" stroke-linejoin="round"/>
<path id="Dot_25" d="M176.364 48.3043L171.561 33.5229" stroke="white" stroke-width="3" stroke-linecap="round" stroke-linejoin="round"/>
<path id="Dot_26" d="M186.376 45.3385L182.354 30.3259" stroke="white" stroke-width="3" stroke-linecap="round" stroke-linejoin="round"/>
<path id="Dot_27" d="M196.53 42.9008L193.299 27.6983" stroke="white" stroke-width="3" stroke-linecap="round" stroke-linejoin="round"/>
<path id="Dot_28" d="M206.798 40.9978L204.367 25.647" stroke="white" stroke-width="3" stroke-linecap="round" stroke-linejoin="round"/>
<path id="Dot_29" d="M217.151 39.6349L215.526 24.1778" stroke="white" stroke-width="3" stroke-linecap="round" stroke-linejoin="round"/>
<path id="Dot_30" d="M227.561 38.8155L226.748 23.2946" stroke="white" stroke-width="3" stroke-linecap="round" stroke-linejoin="round"/>
<path id="Dot_31" d="M238 38.5422V23" stroke="white" stroke-width="3" stroke-linecap="round" stroke-linejoin="round"/>
<path id="Dot_32" d="M248.439 38.8155L249.252 23.2946" stroke="white" stroke-width="3" stroke-linecap="round" stroke-linejoin="round"/>
<path id="Dot_33" d="M258.849 39.6349L260.474 24.1778" stroke="white" stroke-width="3" stroke-linecap="round" stroke-linejoin="round"/>
<path id="Dot_34" d="M269.202 40.9978L271.633 25.647" stroke="white" stroke-width="3" stroke-linecap="round" stroke-linejoin="round"/>
<path id="Dot_35" d="M279.47 42.9008L282.701 27.6983" stroke="white" stroke-width="3" stroke-linecap="round" stroke-linejoin="round"/>
<path id="Dot_36" d="M289.624 45.3385L293.646 30.3259" stroke="white" stroke-width="3" stroke-linecap="round" stroke-linejoin="round"/>
<path id="Dot_37" d="M299.636 48.3043L304.439 33.5229" stroke="white" stroke-width="3" stroke-linecap="round" stroke-linejoin="round"/>
<path id="Dot_38" d="M309.479 51.7901L315.049 37.2803" stroke="white" stroke-width="3" stroke-linecap="round" stroke-linejoin="round"/>
<path id="Dot_39" d="M319.127 55.7862L325.448 41.5877" stroke="white" stroke-width="3" stroke-linecap="round" stroke-linejoin="round"/>
<path id="Dot_40" d="M328.552 60.2818L335.608 46.4336" stroke="white" stroke-width="3" stroke-linecap="round" stroke-linejoin="round"/>
<path id="Dot_41" d="M337.729 65.2644L345.5 51.8045" stroke="white" stroke-width="3" stroke-linecap="round" stroke-linejoin="round"/>
<path id="Dot_42" d="M346.633 70.7206L355.097 57.6858" stroke="white" stroke-width="3" stroke-linecap="round" stroke-linejoin="round"/>
<path id="Dot_43" d="M355.238 76.6352L364.374 64.0613" stroke="white" stroke-width="3" stroke-linecap="round" stroke-linejoin="round"/>
<path id="Dot_44" d="M363.523 82.9921L373.304 70.9136" stroke="white" stroke-width="3" stroke-linecap="round" stroke-linejoin="round"/>
<path id="Dot_45" d="M371.463 89.7739L381.863 78.2238" stroke="white" stroke-width="3" stroke-linecap="round" stroke-linejoin="round"/>
<path id="Dot_46" d="M379.038 96.962L390.028 85.9721" stroke="white" stroke-width="3" stroke-linecap="round" stroke-linejoin="round"/>
<path id="Dot_47" d="M386.226 104.537L397.776 94.1369" stroke="white" stroke-width="3" stroke-linecap="round" stroke-linejoin="round"/>
<path id="Dot_48" d="M393.008 112.477L405.086 102.696" stroke="white" stroke-width="3" stroke-linecap="round" stroke-linejoin="round"/>
<path id="Dot_49" d="M399.365 120.762L411.939 111.626" stroke="white" stroke-width="3" stroke-linecap="round" stroke-linejoin="round"/>
<path id="Dot_50" d="M405.279 129.367L418.314 120.903" stroke="white" stroke-width="3" stroke-linecap="round" stroke-linejoin="round"/>
<path id="Dot_51" d="M410.736 138.271L424.195 130.5" stroke="white" stroke-width="3" stroke-linecap="round" stroke-linejoin="round"/>
<path id="Dot_52" d="M415.718 147.448L429.566 140.392" stroke="white" stroke-width="3" stroke-linecap="round" stroke-linejoin="round"/>
<path id="Dot_53" d="M420.214 156.873L434.412 150.552" stroke="white" stroke-width="3" stroke-linecap="round" stroke-linejoin="round"/>
<path id="Dot_54" d="M424.21 166.521L438.72 160.951" stroke="white" stroke-width="3" stroke-linecap="round" stroke-linejoin="round"/>
<path id="Dot_55" d="M427.696 176.364L442.477 171.561" stroke="white" stroke-width="3" stroke-linecap="round" stroke-linejoin="round"/>
<path id="Dot_56" d="M430.661 186.376L445.674 182.354" stroke="white" stroke-width="3" stroke-linecap="round" stroke-linejoin="round"/>
<path id="Dot_57" d="M433.099 196.53L448.302 193.299" stroke="white" stroke-width="3" stroke-linecap="round" stroke-linejoin="round"/>
<path id="Dot_58" d="M435.002 206.798L450.353 204.367" stroke="white" stroke-width="3" stroke-linecap="round" stroke-linejoin="round"/>
<path id="Dot_59" d="M436.365 217.151L451.822 215.526" stroke="white" stroke-width="3" stroke-linecap="round" stroke-linejoin="round"/>
<path id="Dot_60" d="M437.185 227.561L452.705 226.748" stroke="white" stroke-width="3" stroke-linecap="round" stroke-linejoin="round"/>
<path id="Dot_61" d="M437.458 238H453" stroke="white" stroke-width="3" stroke-linecap="round" stroke-linejoin="round"/>
</g>
<g id="90degLines">
<path id="Line 9" d="M50 238L40 232.226V243.774L50 238ZM41 237H21V239H41V237Z" fill="white"/>
<path id="Line 11" d="M238 49L243.774 39L232.226 39L238 49ZM239 40L239 20L237 20L237 40L239 40Z" fill="white"/>
<path id="Line 12" d="M238 425L232.226 435L243.774 435L238 425ZM237 434L237 454L239 454L239 434L237 434Z" fill="white"/>
<path id="Line 10" d="M427 237L437 242.774L437 231.226L427 237ZM436 238L456 238L456 236L436 236L436 238Z" fill="white"/>
</g>
</g>
<g id="MajorArrow">
<g id="Group 1">
<path id="Polygon 1" d="M230.26 237.029L238 222.307L245.74 237.029L238 251.751L230.26 237.029Z" stroke="white" stroke-width="4"/>
<line id="Line 15" y1="-2" x2="30.6464" y2="-2" transform="matrix(0.454499 0.890747 -0.476341 0.879261 228 237.029)" stroke="white" stroke-width="4"/>
<line id="Line 17" y1="-2" x2="21.1501" y2="-2" transform="matrix(0.44954 0.89326 -0.481429 0.876485 232.55 262.615)" stroke="white" stroke-width="4"/>
<line id="Line 18" y1="-2" x2="21.1501" y2="-2" transform="matrix(-0.44954 0.89326 0.481429 0.876485 243.08 262.231)" stroke="white" stroke-width="4"/>
<line id="Line 19" y1="-2" x2="21.1501" y2="-2" transform="matrix(0.44954 0.89326 -0.481429 0.876485 232.5 279.258)" stroke="white" stroke-width="4"/>
<line id="Line 20" y1="-2" x2="21.1501" y2="-2" transform="matrix(-0.44954 0.89326 0.481429 0.876485 243.258 279.349)" stroke="white" stroke-width="4"/>
<line id="Line 21" y1="-2" x2="21.1501" y2="-2" transform="matrix(0.44954 0.89326 -0.481429 0.876485 232.25 296.467)" stroke="white" stroke-width="4"/>
<line id="Line 22" y1="-2" x2="21.1501" y2="-2" transform="matrix(-0.44954 0.89326 0.481429 0.876485 243.008 296.557)" stroke="white" stroke-width="4"/>
<line id="Line 23" y1="-2" x2="21.1501" y2="-2" transform="matrix(0.44954 0.89326 -0.481429 0.876485 232.5 313.109)" stroke="white" stroke-width="4"/>
<line id="Line 24" y1="-2" x2="21.1501" y2="-2" transform="matrix(-0.44954 0.89326 0.481429 0.876485 243.258 313.2)" stroke="white" stroke-width="4"/>
<line id="Line 16" y1="-2" x2="30.6464" y2="-2" transform="matrix(-0.454499 0.890747 0.476341 0.879261 247.652 237.505)" stroke="white" stroke-width="4"/>
<line id="Line 25" y1="-2" x2="31.0768" y2="-2" transform="matrix(0.1395 0.990222 -0.890965 0.454071 232.5 330.227)" stroke="white" stroke-width="4"/>
<line id="Line 26" y1="-2" x2="30.613" y2="-2" transform="matrix(-0.1395 0.990222 0.890965 0.454071 243.178 330.227)" stroke="white" stroke-width="4"/>
</g>
</g>
<g id="MinorArrow">
<g id="Group 1_2">
<path id="Polygon 1_2" d="M229.887 237.387L238 226.764L246.113 237.387L238 248.01L229.887 237.387Z" stroke="white" stroke-width="3"/>
<line id="Line 15_2" y1="-1.5" x2="23.3922" y2="-1.5" transform="matrix(0.595443 0.803397 -0.618408 0.785857 228 237.387)" stroke="white" stroke-width="3"/>
<line id="Line 17_2" y1="-1.5" x2="16.111" y2="-1.5" transform="matrix(0.590142 0.807299 -0.623668 0.781689 232.55 255.002)" stroke="white" stroke-width="3"/>
<line id="Line 18_2" y1="-1.5" x2="16.111" y2="-1.5" transform="matrix(-0.590142 0.807299 0.623668 0.781689 243.08 254.737)" stroke="white" stroke-width="3"/>
<line id="Line 19_2" y1="-1.5" x2="16.111" y2="-1.5" transform="matrix(0.590142 0.807299 -0.623668 0.781689 232.5 266.459)" stroke="white" stroke-width="3"/>
<line id="Line 20_2" y1="-1.5" x2="16.111" y2="-1.5" transform="matrix(-0.590142 0.807299 0.623668 0.781689 243.258 266.522)" stroke="white" stroke-width="3"/>
<line id="Line 21_2" y1="-1.5" x2="16.111" y2="-1.5" transform="matrix(0.590142 0.807299 -0.623668 0.781689 232.25 278.306)" stroke="white" stroke-width="3"/>
<line id="Line 22_2" y1="-1.5" x2="16.111" y2="-1.5" transform="matrix(-0.590142 0.807299 0.623668 0.781689 243.008 278.369)" stroke="white" stroke-width="3"/>
<line id="Line 23_2" y1="-1.5" x2="16.111" y2="-1.5" transform="matrix(0.590142 0.807299 -0.623668 0.781689 232.5 289.764)" stroke="white" stroke-width="3"/>
<line id="Line 24_2" y1="-1.5" x2="16.111" y2="-1.5" transform="matrix(-0.590142 0.807299 0.623668 0.781689 243.258 289.826)" stroke="white" stroke-width="3"/>
<line id="Line 16_2" y1="-1.5" x2="23.3922" y2="-1.5" transform="matrix(-0.595443 0.803397 0.618408 0.785857 247.652 237.714)" stroke="white" stroke-width="3"/>
<line id="Line 25_2" y1="-1.5" x2="21.6245" y2="-1.5" transform="matrix(0.200477 0.979698 -0.943605 0.331072 232.5 301.549)" stroke="white" stroke-width="3"/>
<line id="Line 26_2" y1="-1.5" x2="21.3017" y2="-1.5" transform="matrix(-0.200477 0.979698 0.943605 0.331072 243.178 301.549)" stroke="white" stroke-width="3"/>
</g>
</g>
</g>
<defs>
<filter id="filter0_d_41_3739" x="0" y="0" width="476" height="474" filterUnits="userSpaceOnUse" color-interpolation-filters="sRGB">
<feFlood flood-opacity="0" result="BackgroundImageFix"/>
<feColorMatrix in="SourceAlpha" type="matrix" values="0 0 0 0 0 0 0 0 0 0 0 0 0 0 0 0 0 0 127 0" result="hardAlpha"/>
<feOffset/>
<feGaussianBlur stdDeviation="10"/>
<feComposite in2="hardAlpha" operator="out"/>
<feColorMatrix type="matrix" values="0 0 0 0 1 0 0 0 0 1 0 0 0 0 1 0 0 0 1 0"/>
<feBlend mode="normal" in2="BackgroundImageFix" result="effect1_dropShadow_41_3739"/>
<feBlend mode="normal" in="SourceGraphic" in2="effect1_dropShadow_41_3739" result="shape"/>
</filter>
</defs>
</svg>
