<svg width="314" height="97" viewBox="0 0 314 97" fill="none" xmlns="http://www.w3.org/2000/svg">
<g id="HomeNav" filter="url(#filter0_d_33_21)">
<rect id="Rectangle 6" x="6.5" y="2.5" width="301" height="84" rx="42" fill="black" stroke="white" stroke-width="5"/>
<path id="Home" d="M91.3815 66H85.9415C85.0455 66 84.5975 65.552 84.5975 64.656V26.192C84.5975 25.296 85.0455 24.848 85.9415 24.848H91.3815C92.2775 24.848 92.7255 25.296 92.7255 26.192V41.232C92.7255 41.7013 92.9815 41.936 93.4935 41.936H104.31C104.779 41.936 105.014 41.7013 105.014 41.232V26.192C105.014 25.296 105.462 24.848 106.358 24.848H111.798C112.694 24.848 113.142 25.296 113.142 26.192V64.656C113.142 65.552 112.694 66 111.798 66H106.358C105.462 66 105.014 65.552 105.014 64.656V49.68C105.014 49.2107 104.779 48.976 104.31 48.976H93.4935C92.9815 48.976 92.7255 49.2107 92.7255 49.68V64.656C92.7255 65.552 92.2775 66 91.3815 66ZM136.449 66H130.753C127.382 66 124.779 65.104 122.945 63.312C121.11 61.52 120.193 58.9387 120.193 55.568V43.792C120.193 40.4213 121.11 37.84 122.945 36.048C124.779 34.256 127.382 33.36 130.753 33.36H136.449C139.777 33.36 142.358 34.2773 144.193 36.112C146.07 37.904 147.009 40.464 147.009 43.792V55.568C147.009 58.896 146.07 61.4773 144.193 63.312C142.358 65.104 139.777 66 136.449 66ZM131.969 59.024H135.233C136.598 59.024 137.558 58.7467 138.113 58.192C138.71 57.6373 139.009 56.6773 139.009 55.312V44.048C139.009 42.6827 138.71 41.7227 138.113 41.168C137.558 40.6133 136.598 40.336 135.233 40.336H131.969C130.603 40.336 129.643 40.6133 129.089 41.168C128.534 41.7227 128.257 42.6827 128.257 44.048V55.312C128.257 56.6773 128.534 57.6373 129.089 58.192C129.643 58.7467 130.603 59.024 131.969 59.024ZM160.179 66H154.739C153.843 66 153.395 65.552 153.395 64.656V34.704C153.395 33.808 153.843 33.36 154.739 33.36H160.179C161.075 33.36 161.523 33.808 161.523 34.704V36.816H161.779C162.291 35.792 163.144 34.96 164.339 34.32C165.576 33.68 166.984 33.36 168.563 33.36H170.355C174.067 33.36 176.734 34.7253 178.355 37.456C179.806 34.7253 182.302 33.36 185.843 33.36H187.699C190.984 33.36 193.459 34.256 195.123 36.048C196.83 37.84 197.683 40.4213 197.683 43.792V64.656C197.683 65.552 197.235 66 196.339 66H190.899C190.003 66 189.555 65.552 189.555 64.656V44.176C189.555 42.8107 189.278 41.8507 188.723 41.296C188.168 40.6987 187.208 40.4 185.843 40.4H184.243C181.299 40.4 179.827 42.0427 179.827 45.328V64.656C179.827 65.552 179.358 66 178.419 66H173.043C172.147 66 171.699 65.552 171.699 64.656V44.176C171.699 42.8107 171.4 41.8507 170.803 41.296C170.248 40.6987 169.288 40.4 167.923 40.4H165.939C162.995 40.4 161.523 42.0213 161.523 45.264V64.656C161.523 65.552 161.075 66 160.179 66ZM228.522 66H214.378C211.007 66 208.404 65.104 206.57 63.312C204.735 61.52 203.818 58.9387 203.818 55.568V43.792C203.818 40.4213 204.735 37.84 206.57 36.048C208.404 34.256 211.007 33.36 214.378 33.36H219.434C222.804 33.36 225.407 34.256 227.242 36.048C229.076 37.84 229.994 40.4213 229.994 43.792V51.92C229.994 52.816 229.546 53.264 228.65 53.264H212.586C212.074 53.264 211.818 53.4987 211.818 53.968V55.376C211.818 56.6987 212.095 57.6587 212.65 58.256C213.247 58.8107 214.228 59.088 215.594 59.088H228.522C229.418 59.088 229.866 59.5573 229.866 60.496V64.72C229.866 65.1893 229.759 65.5307 229.546 65.744C229.375 65.9147 229.034 66 228.522 66ZM212.586 47.824H221.29C221.759 47.824 221.994 47.5893 221.994 47.12V44.048C221.994 42.6827 221.716 41.7227 221.162 41.168C220.607 40.6133 219.647 40.336 218.282 40.336H215.594C214.228 40.336 213.268 40.6133 212.714 41.168C212.159 41.7227 211.882 42.6827 211.882 44.048V47.12C211.882 47.5893 212.116 47.824 212.586 47.824Z" fill="white"/>
</g>
<defs>
<filter id="filter0_d_33_21" x="0" y="0" width="314" height="97" filterUnits="userSpaceOnUse" color-interpolation-filters="sRGB">
<feFlood flood-opacity="0" result="BackgroundImageFix"/>
<feColorMatrix in="SourceAlpha" type="matrix" values="0 0 0 0 0 0 0 0 0 0 0 0 0 0 0 0 0 0 127 0" result="hardAlpha"/>
<feOffset dy="4"/>
<feGaussianBlur stdDeviation="2"/>
<feComposite in2="hardAlpha" operator="out"/>
<feColorMatrix type="matrix" values="0 0 0 0 0 0 0 0 0 0 0 0 0 0 0 0 0 0 0.25 0"/>
<feBlend mode="normal" in2="BackgroundImageFix" result="effect1_dropShadow_33_21"/>
<feBlend mode="normal" in="SourceGraphic" in2="effect1_dropShadow_33_21" result="shape"/>
</filter>
</defs>
</svg>
