<svg width="268" height="107" viewBox="0 0 268 107" fill="none" xmlns="http://www.w3.org/2000/svg">
<path d="M15.0732 1.144V29.992C15.0732 30.664 14.7372 31 14.0652 31H9.98519C9.31319 31 8.97719 30.664 8.97719 29.992V1.144C8.97719 0.471999 9.31319 0.136 9.98519 0.136H14.0652C14.7372 0.136 15.0732 0.471999 15.0732 1.144ZM25.5661 1.048V2.488C25.5661 3.48 25.1981 4.744 24.4621 6.28L21.9181 11.128C21.6941 11.448 21.3901 11.608 21.0061 11.608C20.4621 11.608 20.1901 11.288 20.1901 10.648V1.096C20.1901 0.455999 20.5101 0.136 21.1501 0.136H24.6061C25.2461 0.136 25.5661 0.44 25.5661 1.048ZM35.0014 31H30.9214C30.2494 31 29.9134 30.664 29.9134 29.992V7.528C29.9134 6.856 30.2494 6.52 30.9214 6.52H35.0014C35.6734 6.52 36.0094 6.856 36.0094 7.528V9.112H36.2014C36.5854 8.344 37.2254 7.72 38.1214 7.24C39.0494 6.76 40.1054 6.52 41.2894 6.52H42.6334C45.4174 6.52 47.4174 7.544 48.6334 9.592C49.7214 7.544 51.5934 6.52 54.2494 6.52H55.6414C58.1054 6.52 59.9614 7.192 61.2094 8.536C62.4894 9.88 63.1294 11.816 63.1294 14.344V29.992C63.1294 30.664 62.7934 31 62.1214 31H58.0414C57.3694 31 57.0334 30.664 57.0334 29.992V14.632C57.0334 13.608 56.8254 12.888 56.4094 12.472C55.9934 12.024 55.2734 11.8 54.2494 11.8H53.0494C50.8414 11.8 49.7374 13.032 49.7374 15.496V29.992C49.7374 30.664 49.3854 31 48.6814 31H44.6494C43.9774 31 43.6414 30.664 43.6414 29.992V14.632C43.6414 13.608 43.4174 12.888 42.9694 12.472C42.5534 12.024 41.8334 11.8 40.8094 11.8H39.3214C37.1134 11.8 36.0094 13.016 36.0094 15.448V29.992C36.0094 30.664 35.6734 31 35.0014 31ZM84.2292 31H80.2452C79.5732 31 79.2372 30.664 79.2372 29.992V1.144C79.2372 0.471999 79.5732 0.136 80.2452 0.136H83.8452C84.5172 0.136 84.9652 0.36 85.1892 0.808L94.8852 19H95.0772V1.144C95.0772 0.471999 95.4132 0.136 96.0852 0.136H100.069C100.741 0.136 101.077 0.471999 101.077 1.144V29.992C101.077 30.664 100.741 31 100.069 31H96.5652C95.8612 31 95.3492 30.68 95.0292 30.04L85.4292 12.184H85.2372V29.992C85.2372 30.664 84.9012 31 84.2292 31ZM119.891 31H113.603C112.931 31 112.531 30.664 112.403 29.992L104.963 1.24C104.739 0.504 105.059 0.136 105.923 0.136H110.435C111.075 0.136 111.459 0.471999 111.587 1.144L116.627 24.76H116.819L121.859 1.144C121.987 0.471999 122.371 0.136 123.011 0.136H127.523C128.323 0.136 128.643 0.504 128.483 1.24L121.043 29.992C120.883 30.664 120.499 31 119.891 31ZM149.147 31H133.355C132.683 31 132.347 30.664 132.347 29.992V1.144C132.347 0.471999 132.683 0.136 133.355 0.136H137.435C138.107 0.136 138.443 0.471999 138.443 1.144V25.144C138.443 25.496 138.635 25.672 139.019 25.672H149.147C149.787 25.672 150.107 26.024 150.107 26.728V29.992C150.107 30.664 149.787 31 149.147 31ZM170.709 31H154.917C154.245 31 153.909 30.664 153.909 29.992V1.144C153.909 0.471999 154.245 0.136 154.917 0.136H158.997C159.669 0.136 160.005 0.471999 160.005 1.144V25.144C160.005 25.496 160.197 25.672 160.581 25.672H170.709C171.349 25.672 171.669 26.024 171.669 26.728V29.992C171.669 30.664 171.349 31 170.709 31ZM184.4 18.136H175.28C174.608 18.136 174.272 17.8 174.272 17.128V14.296C174.272 13.592 174.608 13.24 175.28 13.24H184.4C185.072 13.24 185.408 13.592 185.408 14.296V17.128C185.408 17.8 185.072 18.136 184.4 18.136ZM189.609 29.992V27.112C189.609 26.056 189.817 25.272 190.233 24.76L202.953 5.992V5.8H191.481C190.809 5.8 190.473 5.464 190.473 4.792V1.144C190.473 0.471999 190.809 0.136 191.481 0.136H208.521C209.161 0.136 209.481 0.471999 209.481 1.144V5.272C209.481 6.232 209.241 7.064 208.761 7.768L196.809 25.144V25.336H209.001C209.641 25.336 209.961 25.64 209.961 26.248V29.896C209.961 30.632 209.641 31 209.001 31H190.617C189.945 31 189.609 30.664 189.609 29.992ZM232.16 31H216.464C215.792 31 215.456 30.664 215.456 29.992V1.144C215.456 0.471999 215.792 0.136 216.464 0.136H232.16C232.8 0.136 233.12 0.471999 233.12 1.144V4.408C233.12 5.08 232.8 5.416 232.16 5.416H222.128C221.744 5.416 221.552 5.592 221.552 5.944V12.184C221.552 12.536 221.744 12.712 222.128 12.712H230.336C231.008 12.712 231.344 13.048 231.344 13.72V16.984C231.344 17.656 231.008 17.992 230.336 17.992H222.128C221.744 17.992 221.552 18.168 221.552 18.52V25.192C221.552 25.544 221.744 25.72 222.128 25.72H232.16C232.8 25.72 233.12 26.056 233.12 26.728V29.992C233.12 30.664 232.8 31 232.16 31ZM243.417 31H239.433C238.761 31 238.425 30.664 238.425 29.992V1.144C238.425 0.471999 238.761 0.136 239.433 0.136H243.033C243.705 0.136 244.153 0.36 244.377 0.808L254.073 19H254.265V1.144C254.265 0.471999 254.601 0.136 255.273 0.136H259.257C259.929 0.136 260.265 0.471999 260.265 1.144V29.992C260.265 30.664 259.929 31 259.257 31H255.753C255.049 31 254.537 30.68 254.217 30.04L244.617 12.184H244.425V29.992C244.425 30.664 244.089 31 243.417 31ZM3.04288 58.4H1.50688C1.29354 58.4 1.14421 58.368 1.05888 58.304C0.994875 58.2187 0.962875 58.08 0.962875 57.888V56.224C0.962875 55.8613 1.14421 55.68 1.50688 55.68H3.04288C3.25621 55.68 3.36288 55.5733 3.36288 55.36V52.48C3.36288 52.1173 3.55488 51.936 3.93888 51.936H5.95488C6.31754 51.936 6.49888 52.1173 6.49888 52.48V55.36C6.49888 55.5733 6.61621 55.68 6.85088 55.68H9.82688C10.2109 55.68 10.4029 55.8613 10.4029 56.224V57.888C10.4029 58.2293 10.2109 58.4 9.82688 58.4H6.85088C6.61621 58.4 6.49888 58.5067 6.49888 58.72V66.944C6.49888 68.5013 7.29888 69.28 8.89888 69.28H10.1469C10.5309 69.28 10.7229 69.4613 10.7229 69.824V71.488C10.7229 71.8293 10.5309 72 10.1469 72H8.41888C6.84021 72 5.60288 71.5733 4.70688 70.72C3.81088 69.8667 3.36288 68.6613 3.36288 67.104V58.72C3.36288 58.5067 3.25621 58.4 3.04288 58.4ZM25.3336 72H18.4216C16.843 72 15.6163 71.5627 14.7416 70.688C13.8883 69.8133 13.4616 68.5973 13.4616 67.04V60.64C13.4616 59.0613 13.8883 57.8453 14.7416 56.992C15.6163 56.1173 16.843 55.68 18.4216 55.68H21.0456C22.6243 55.68 23.851 56.1173 24.7256 56.992C25.6003 57.8453 26.0376 59.0613 26.0376 60.64V64.704C26.0376 65.088 25.8456 65.28 25.4616 65.28H16.8856C16.651 65.28 16.5336 65.3867 16.5336 65.6V66.976C16.5336 68.5333 17.3123 69.312 18.8696 69.312H25.3336C25.7176 69.312 25.9096 69.504 25.9096 69.888V71.488C25.9096 71.8293 25.7176 72 25.3336 72ZM16.8856 63.104H22.6136C22.827 63.104 22.9336 62.9973 22.9336 62.784V60.736C22.9336 59.9253 22.7523 59.3387 22.3896 58.976C22.027 58.592 21.4403 58.4 20.6296 58.4H18.8696C18.059 58.4 17.4723 58.592 17.1096 58.976C16.747 59.3387 16.5656 59.9253 16.5656 60.736V62.784C16.5656 62.9973 16.6723 63.104 16.8856 63.104ZM39.4829 69.824V71.488C39.4829 71.8293 39.2909 72 38.9069 72H34.2029C32.6242 72 31.3975 71.5627 30.5229 70.688C29.6695 69.8133 29.2429 68.5973 29.2429 67.04V60.64C29.2429 59.0613 29.6695 57.8453 30.5229 56.992C31.3975 56.1173 32.6242 55.68 34.2029 55.68H38.9069C39.2909 55.68 39.4829 55.8613 39.4829 56.224V57.888C39.4829 58.2293 39.2909 58.4 38.9069 58.4H34.6509C33.1149 58.4 32.3469 59.1893 32.3469 60.768V66.912C32.3469 68.4907 33.1149 69.28 34.6509 69.28H38.9069C39.2909 69.28 39.4829 69.4613 39.4829 69.824ZM45.0916 72H43.0756C42.713 72 42.5316 71.8187 42.5316 71.456V50.048C42.5316 49.6853 42.713 49.504 43.0756 49.504H45.0916C45.4543 49.504 45.6356 49.6853 45.6356 50.048V57.376H45.7636C46.2756 56.2453 47.353 55.68 48.9956 55.68H50.4036C51.961 55.68 53.1556 56.1067 53.9876 56.96C54.8196 57.8133 55.2356 59.04 55.2356 60.64V71.456C55.2356 71.8187 55.0436 72 54.6596 72H52.6436C52.281 72 52.0996 71.8187 52.0996 71.456V60.768C52.0996 59.1893 51.321 58.4 49.7636 58.4H48.2596C46.5103 58.4 45.6356 59.3067 45.6356 61.12V71.456C45.6356 71.8187 45.4543 72 45.0916 72ZM61.6229 72H59.6069C59.2442 72 59.0629 71.8187 59.0629 71.456V56.224C59.0629 55.8613 59.2442 55.68 59.6069 55.68H61.6229C61.9855 55.68 62.1669 55.8613 62.1669 56.224V57.376H62.2949C62.8069 56.2453 63.8842 55.68 65.5269 55.68H66.9349C68.4922 55.68 69.6869 56.1067 70.5189 56.96C71.3509 57.8133 71.7669 59.04 71.7669 60.64V71.456C71.7669 71.8187 71.5749 72 71.1909 72H69.1749C68.8122 72 68.6309 71.8187 68.6309 71.456V60.768C68.6309 59.1893 67.8522 58.4 66.2949 58.4H64.7909C63.0415 58.4 62.1669 59.3067 62.1669 61.12V71.456C62.1669 71.8187 61.9855 72 61.6229 72ZM83.0501 72H80.2341C78.6555 72 77.4288 71.5627 76.5541 70.688C75.7008 69.8133 75.2741 68.5973 75.2741 67.04V60.64C75.2741 59.0613 75.7008 57.8453 76.5541 56.992C77.4288 56.1173 78.6555 55.68 80.2341 55.68H83.0501C84.6075 55.68 85.8235 56.1173 86.6981 56.992C87.5941 57.8453 88.0421 59.0613 88.0421 60.64V67.04C88.0421 68.5973 87.5941 69.8133 86.6981 70.688C85.8235 71.5627 84.6075 72 83.0501 72ZM80.6821 69.28H82.6341C84.1701 69.28 84.9381 68.5013 84.9381 66.944V60.736C84.9381 59.1787 84.1701 58.4 82.6341 58.4H80.6821C79.8715 58.4 79.2848 58.592 78.9221 58.976C78.5595 59.3387 78.3781 59.9253 78.3781 60.736V66.944C78.3781 67.7547 78.5595 68.352 78.9221 68.736C79.2848 69.0987 79.8715 69.28 80.6821 69.28ZM94.2791 76.512H92.2631C91.9005 76.512 91.7191 76.3307 91.7191 75.968V56.224C91.7191 55.8613 91.9005 55.68 92.2631 55.68H94.2791C94.6418 55.68 94.8231 55.8613 94.8231 56.224V57.376H94.9511C95.4631 56.2453 96.5405 55.68 98.1831 55.68H99.8151C101.351 55.68 102.524 56.1067 103.335 56.96C104.167 57.8133 104.583 59.04 104.583 60.64V67.04C104.583 68.6187 104.167 69.8453 103.335 70.72C102.524 71.5733 101.351 72 99.8151 72H98.1831C96.5405 72 95.4631 71.4347 94.9511 70.304H94.8231V75.968C94.8231 76.3307 94.6418 76.512 94.2791 76.512ZM97.4471 69.28H99.1431C100.679 69.28 101.447 68.4907 101.447 66.912V60.768C101.447 59.1893 100.679 58.4 99.1431 58.4H97.4471C95.6978 58.4 94.8231 59.3067 94.8231 61.12V66.56C94.8231 68.3733 95.6978 69.28 97.4471 69.28ZM110.842 72H108.826C108.463 72 108.282 71.8187 108.282 71.456V50.048C108.282 49.6853 108.463 49.504 108.826 49.504H110.842C111.204 49.504 111.386 49.6853 111.386 50.048V57.376H111.514C112.026 56.2453 113.103 55.68 114.746 55.68H116.154C117.711 55.68 118.906 56.1067 119.738 56.96C120.57 57.8133 120.986 59.04 120.986 60.64V71.456C120.986 71.8187 120.794 72 120.41 72H118.394C118.031 72 117.85 71.8187 117.85 71.456V60.768C117.85 59.1893 117.071 58.4 115.514 58.4H114.01C112.26 58.4 111.386 59.3067 111.386 61.12V71.456C111.386 71.8187 111.204 72 110.842 72ZM124.973 52.96V50.048C124.973 49.7067 125.144 49.536 125.485 49.536H127.565C127.906 49.536 128.077 49.7067 128.077 50.048V52.96C128.077 53.3227 127.906 53.504 127.565 53.504H125.485C125.144 53.504 124.973 53.3227 124.973 52.96ZM124.973 71.456V56.224C124.973 55.8613 125.144 55.68 125.485 55.68H127.533C127.896 55.68 128.077 55.8613 128.077 56.224V71.456C128.077 71.6693 128.034 71.8187 127.949 71.904C127.885 71.968 127.757 72 127.565 72H125.517C125.154 72 124.973 71.8187 124.973 71.456ZM135.002 72H132.986C132.623 72 132.442 71.8187 132.442 71.456V50.048C132.442 49.6853 132.623 49.504 132.986 49.504H135.002C135.364 49.504 135.546 49.6853 135.546 50.048V71.456C135.546 71.8187 135.364 72 135.002 72ZM151.302 72H144.39C142.812 72 141.585 71.5627 140.71 70.688C139.857 69.8133 139.43 68.5973 139.43 67.04V60.64C139.43 59.0613 139.857 57.8453 140.71 56.992C141.585 56.1173 142.812 55.68 144.39 55.68H147.014C148.593 55.68 149.82 56.1173 150.694 56.992C151.569 57.8453 152.006 59.0613 152.006 60.64V64.704C152.006 65.088 151.814 65.28 151.43 65.28H142.854C142.62 65.28 142.502 65.3867 142.502 65.6V66.976C142.502 68.5333 143.281 69.312 144.838 69.312H151.302C151.686 69.312 151.878 69.504 151.878 69.888V71.488C151.878 71.8293 151.686 72 151.302 72ZM142.854 63.104H148.582C148.796 63.104 148.902 62.9973 148.902 62.784V60.736C148.902 59.9253 148.721 59.3387 148.358 58.976C147.996 58.592 147.409 58.4 146.598 58.4H144.838C144.028 58.4 143.441 58.592 143.078 58.976C142.716 59.3387 142.534 59.9253 142.534 60.736V62.784C142.534 62.9973 142.641 63.104 142.854 63.104ZM166.613 69.28H170.581C172.117 69.28 172.885 68.4907 172.885 66.912V60.64C172.885 59.0613 172.117 58.272 170.581 58.272H168.885C167.135 58.272 166.261 59.168 166.261 60.96V68.928C166.261 69.1627 166.378 69.28 166.613 69.28ZM163.157 71.456V50.048C163.157 49.6853 163.338 49.504 163.701 49.504H165.717C166.079 49.504 166.261 49.6853 166.261 50.048V57.28H166.389C166.922 56.128 167.999 55.552 169.621 55.552H171.029C172.607 55.552 173.834 55.9893 174.709 56.864C175.583 57.7173 176.021 58.9227 176.021 60.48V67.04C176.021 68.5973 175.583 69.8133 174.709 70.688C173.834 71.5627 172.607 72 171.029 72H163.701C163.338 72 163.157 71.8187 163.157 71.456ZM181.639 77.184H179.943C179.58 77.184 179.399 77.0027 179.399 76.64V75.008C179.399 74.624 179.58 74.432 179.943 74.432H180.679C181.98 74.432 182.876 74.176 183.367 73.664C183.879 73.152 184.306 72.3093 184.647 71.136H183.367C183.047 71.136 182.823 70.9547 182.695 70.592L178.439 56.224C178.354 55.8613 178.492 55.68 178.855 55.68H180.999C181.34 55.68 181.554 55.8613 181.639 56.224L185.127 68.768H185.255L188.743 56.224C188.807 55.8613 189.02 55.68 189.383 55.68H191.431C191.836 55.68 192.007 55.872 191.943 56.256L187.559 71.648C187.068 73.44 186.375 74.8053 185.479 75.744C184.583 76.704 183.303 77.184 181.639 77.184ZM204.842 72H202.826C202.463 72 202.282 71.8187 202.282 71.456V56.224C202.282 55.8613 202.463 55.68 202.826 55.68H204.842C205.204 55.68 205.386 55.8613 205.386 56.224V57.376H205.514C206.026 56.2453 207.103 55.68 208.746 55.68H210.154C211.711 55.68 212.906 56.1067 213.738 56.96C214.57 57.8133 214.986 59.04 214.986 60.64V71.456C214.986 71.8187 214.794 72 214.41 72H212.394C212.031 72 211.85 71.8187 211.85 71.456V60.768C211.85 59.1893 211.071 58.4 209.514 58.4H208.01C206.26 58.4 205.386 59.3067 205.386 61.12V71.456C205.386 71.8187 205.204 72 204.842 72ZM218.973 52.96V50.048C218.973 49.7067 219.144 49.536 219.485 49.536H221.565C221.906 49.536 222.077 49.7067 222.077 50.048V52.96C222.077 53.3227 221.906 53.504 221.565 53.504H219.485C219.144 53.504 218.973 53.3227 218.973 52.96ZM218.973 71.456V56.224C218.973 55.8613 219.144 55.68 219.485 55.68H221.533C221.896 55.68 222.077 55.8613 222.077 56.224V71.456C222.077 71.6693 222.034 71.8187 221.949 71.904C221.885 71.968 221.757 72 221.565 72H219.517C219.154 72 218.973 71.8187 218.973 71.456ZM232.234 71.2H230.794C229.258 71.2 228.074 70.7733 227.242 69.92C226.431 69.0453 226.026 67.8187 226.026 66.24V60.64C226.026 59.0613 226.463 57.8453 227.338 56.992C228.212 56.1173 229.428 55.68 230.986 55.68H238.154C238.538 55.68 238.73 55.8613 238.73 56.224V72.064C238.73 73.6213 238.282 74.8267 237.386 75.68C236.511 76.5547 235.295 76.992 233.738 76.992H227.722C227.359 76.992 227.178 76.8213 227.178 76.48V74.816C227.178 74.4533 227.359 74.272 227.722 74.272H233.258C234.815 74.272 235.594 73.4827 235.594 71.904V69.472H235.466C234.932 70.624 233.855 71.2 232.234 71.2ZM235.594 65.76V58.72C235.594 58.5067 235.476 58.4 235.242 58.4H231.434C229.919 58.4 229.162 59.1893 229.162 60.768V66.08C229.162 67.6587 229.919 68.448 231.434 68.448H232.97C234.719 68.448 235.594 67.552 235.594 65.76ZM245.279 72H243.263C242.9 72 242.719 71.8187 242.719 71.456V50.048C242.719 49.6853 242.9 49.504 243.263 49.504H245.279C245.642 49.504 245.823 49.6853 245.823 50.048V57.376H245.951C246.463 56.2453 247.54 55.68 249.183 55.68H250.591C252.148 55.68 253.343 56.1067 254.175 56.96C255.007 57.8133 255.423 59.04 255.423 60.64V71.456C255.423 71.8187 255.231 72 254.847 72H252.831C252.468 72 252.287 71.8187 252.287 71.456V60.768C252.287 59.1893 251.508 58.4 249.951 58.4H248.447C246.698 58.4 245.823 59.3067 245.823 61.12V71.456C245.823 71.8187 245.642 72 245.279 72ZM259.73 58.4H258.194C257.981 58.4 257.832 58.368 257.746 58.304C257.682 58.2187 257.65 58.08 257.65 57.888V56.224C257.65 55.8613 257.832 55.68 258.194 55.68H259.73C259.944 55.68 260.05 55.5733 260.05 55.36V52.48C260.05 52.1173 260.242 51.936 260.626 51.936H262.642C263.005 51.936 263.186 52.1173 263.186 52.48V55.36C263.186 55.5733 263.304 55.68 263.538 55.68H266.514C266.898 55.68 267.09 55.8613 267.09 56.224V57.888C267.09 58.2293 266.898 58.4 266.514 58.4H263.538C263.304 58.4 263.186 58.5067 263.186 58.72V66.944C263.186 68.5013 263.986 69.28 265.586 69.28H266.834C267.218 69.28 267.41 69.4613 267.41 69.824V71.488C267.41 71.8293 267.218 72 266.834 72H265.106C263.528 72 262.29 71.5733 261.394 70.72C260.498 69.8667 260.05 68.6613 260.05 67.104V58.72C260.05 58.5067 259.944 58.4 259.73 58.4ZM66.9252 103H62.6532C62.4292 103 62.3172 102.888 62.3172 102.664V101.824C62.3172 101.616 62.4292 101.512 62.6532 101.512H66.6852C67.9332 101.512 68.5572 101.048 68.5572 100.12V99.664C68.5572 98.816 68.1492 98.232 67.3332 97.912L64.5012 96.712C63.6852 96.376 63.1012 95.984 62.7492 95.536C62.3972 95.072 62.2212 94.464 62.2212 93.712C62.2212 91.744 63.3012 90.76 65.4612 90.76H69.3972C69.6212 90.76 69.7332 90.872 69.7332 91.096V91.936C69.7332 92.144 69.6212 92.248 69.3972 92.248H65.7732C65.1972 92.248 64.7572 92.368 64.4532 92.608C64.1652 92.848 64.0212 93.128 64.0212 93.448V93.856C64.0212 94.528 64.4772 95.04 65.3892 95.392L68.2212 96.664C69.0532 96.984 69.6132 97.408 69.9012 97.936C70.2052 98.464 70.3572 99.192 70.3572 100.12C70.3572 102.04 69.2132 103 66.9252 103ZM73.612 92.296H72.292C72.068 92.296 71.956 92.192 71.956 91.984V91.096C71.956 90.872 72.068 90.76 72.292 90.76H73.612C73.772 90.76 73.852 90.688 73.852 90.544V88.48C73.852 88.256 73.964 88.144 74.188 88.144H75.268C75.476 88.144 75.58 88.256 75.58 88.48V90.544C75.58 90.688 75.668 90.76 75.844 90.76H78.388C78.628 90.76 78.748 90.872 78.748 91.096V91.984C78.748 92.192 78.628 92.296 78.388 92.296H75.844C75.668 92.296 75.58 92.368 75.58 92.512V99.424C75.58 100.784 76.284 101.464 77.692 101.464H78.628C78.868 101.464 78.988 101.576 78.988 101.8V102.688C78.988 102.896 78.868 103 78.628 103H77.476C76.372 103 75.492 102.696 74.836 102.088C74.18 101.464 73.852 100.6 73.852 99.496V92.512C73.852 92.368 73.772 92.296 73.612 92.296ZM86.2032 103H84.8592C83.7712 103 82.9232 102.688 82.3152 102.064C81.7072 101.44 81.4032 100.568 81.4032 99.448V91.096C81.4032 90.872 81.5152 90.76 81.7392 90.76H82.8192C83.0432 90.76 83.1552 90.872 83.1552 91.096V99.376C83.1552 100.768 83.8192 101.464 85.1472 101.464H86.5152C87.2352 101.464 87.7872 101.272 88.1712 100.888C88.5552 100.504 88.7472 99.96 88.7472 99.256V91.096C88.7472 90.872 88.8592 90.76 89.0832 90.76H90.1632C90.3872 90.76 90.4992 90.872 90.4992 91.096V102.664C90.4992 102.888 90.3872 103 90.1632 103H89.0832C88.8592 103 88.7472 102.888 88.7472 102.664V101.728H88.6512C88.2512 102.576 87.4352 103 86.2032 103ZM98.4364 103H97.0204C95.9324 103 95.0844 102.688 94.4764 102.064C93.8684 101.44 93.5644 100.568 93.5644 99.448V94.312C93.5644 93.192 93.8684 92.32 94.4764 91.696C95.0844 91.072 95.9324 90.76 97.0204 90.76H98.4364C99.6844 90.76 100.508 91.184 100.908 92.032H101.004V86.464C101.004 86.24 101.108 86.128 101.316 86.128H102.42C102.628 86.128 102.732 86.24 102.732 86.464V102.664C102.732 102.888 102.628 103 102.42 103H101.316C101.108 103 101.004 102.888 101.004 102.664V101.728H100.908C100.508 102.576 99.6844 103 98.4364 103ZM101.004 99.256V94.504C101.004 93.8 100.812 93.256 100.428 92.872C100.044 92.488 99.4924 92.296 98.7724 92.296H97.3084C95.9804 92.296 95.3164 92.992 95.3164 94.384V99.376C95.3164 100.768 95.9804 101.464 97.3084 101.464H98.7724C99.4924 101.464 100.044 101.272 100.428 100.888C100.812 100.504 101.004 99.96 101.004 99.256ZM114.439 103H109.351C108.247 103 107.375 102.688 106.735 102.064C106.111 101.44 105.799 100.568 105.799 99.448V94.312C105.799 93.192 106.111 92.32 106.735 91.696C107.375 91.072 108.247 90.76 109.351 90.76H111.367C112.471 90.76 113.335 91.072 113.959 91.696C114.583 92.32 114.895 93.192 114.895 94.312V97.36C114.895 97.6 114.783 97.72 114.559 97.72H107.767C107.607 97.72 107.527 97.792 107.527 97.936V99.4C107.527 100.792 108.199 101.488 109.543 101.488H114.439C114.663 101.488 114.775 101.6 114.775 101.824V102.688C114.775 102.896 114.663 103 114.439 103ZM107.767 96.448H112.951C113.111 96.448 113.191 96.368 113.191 96.208V94.36C113.191 92.984 112.519 92.296 111.175 92.296H109.543C108.199 92.296 107.527 92.984 107.527 94.36V96.208C107.527 96.368 107.607 96.448 107.767 96.448ZM119.267 103H118.187C117.963 103 117.851 102.888 117.851 102.664V91.096C117.851 90.872 117.963 90.76 118.187 90.76H119.267C119.491 90.76 119.603 90.872 119.603 91.096V92.032H119.699C120.099 91.184 120.915 90.76 122.147 90.76H123.491C124.579 90.76 125.427 91.072 126.035 91.696C126.643 92.32 126.947 93.192 126.947 94.312V102.664C126.947 102.888 126.835 103 126.611 103H125.531C125.307 103 125.195 102.888 125.195 102.664V94.384C125.195 92.992 124.523 92.296 123.179 92.296H121.835C121.115 92.296 120.563 92.488 120.179 92.872C119.795 93.256 119.603 93.8 119.603 94.504V102.664C119.603 102.888 119.491 103 119.267 103ZM130.589 92.296H129.269C129.045 92.296 128.933 92.192 128.933 91.984V91.096C128.933 90.872 129.045 90.76 129.269 90.76H130.589C130.749 90.76 130.829 90.688 130.829 90.544V88.48C130.829 88.256 130.941 88.144 131.165 88.144H132.245C132.453 88.144 132.557 88.256 132.557 88.48V90.544C132.557 90.688 132.645 90.76 132.821 90.76H135.365C135.605 90.76 135.725 90.872 135.725 91.096V91.984C135.725 92.192 135.605 92.296 135.365 92.296H132.821C132.645 92.296 132.557 92.368 132.557 92.512V99.424C132.557 100.784 133.261 101.464 134.669 101.464H135.605C135.845 101.464 135.965 101.576 135.965 101.8V102.688C135.965 102.896 135.845 103 135.605 103H134.453C133.349 103 132.469 102.696 131.813 102.088C131.157 101.464 130.829 100.6 130.829 99.496V92.512C130.829 92.368 130.749 92.296 130.589 92.296ZM146.586 101.464H149.993C151.354 101.464 152.034 100.768 152.034 99.376V94.24C152.034 92.848 151.354 92.152 149.993 92.152H148.578C147.858 92.152 147.306 92.344 146.922 92.728C146.538 93.112 146.346 93.648 146.346 94.336V101.248C146.346 101.392 146.426 101.464 146.586 101.464ZM144.594 102.664V86.464C144.594 86.24 144.706 86.128 144.93 86.128H146.01C146.234 86.128 146.346 86.24 146.346 86.464V91.888H146.442C146.842 91.04 147.658 90.616 148.89 90.616H150.234C151.322 90.616 152.178 90.928 152.802 91.552C153.442 92.176 153.762 93.04 153.762 94.144V99.448C153.762 100.568 153.442 101.44 152.802 102.064C152.178 102.688 151.322 103 150.234 103H144.93C144.706 103 144.594 102.888 144.594 102.664ZM157.812 106.768H156.756C156.532 106.768 156.42 106.656 156.42 106.432V105.544C156.42 105.32 156.532 105.208 156.756 105.208H157.356C158.38 105.208 159.1 104.92 159.516 104.344C159.852 103.88 160.156 103.216 160.428 102.352H159.732C159.54 102.352 159.404 102.24 159.324 102.016L155.796 91.096C155.732 90.872 155.812 90.76 156.036 90.76H157.188C157.396 90.76 157.532 90.872 157.596 91.096L160.692 100.984H160.788L163.884 91.096C163.932 90.872 164.06 90.76 164.268 90.76H165.372C165.644 90.76 165.74 90.88 165.66 91.12L162.084 102.52C161.684 103.88 161.172 104.928 160.548 105.664C159.94 106.4 159.028 106.768 157.812 106.768ZM178.663 103H177.247C176.159 103 175.311 102.688 174.703 102.064C174.095 101.44 173.791 100.568 173.791 99.448V94.312C173.791 93.192 174.095 92.32 174.703 91.696C175.311 91.072 176.159 90.76 177.247 90.76H178.663C179.911 90.76 180.735 91.184 181.135 92.032H181.231V86.464C181.231 86.24 181.335 86.128 181.543 86.128H182.647C182.855 86.128 182.959 86.24 182.959 86.464V102.664C182.959 102.888 182.855 103 182.647 103H181.543C181.335 103 181.231 102.888 181.231 102.664V101.728H181.135C180.735 102.576 179.911 103 178.663 103ZM181.231 99.256V94.504C181.231 93.8 181.039 93.256 180.655 92.872C180.271 92.488 179.719 92.296 178.999 92.296H177.535C176.207 92.296 175.543 92.992 175.543 94.384V99.376C175.543 100.768 176.207 101.464 177.535 101.464H178.999C179.719 101.464 180.271 101.272 180.655 100.888C181.039 100.504 181.231 99.96 181.231 99.256ZM190.825 103H189.577C188.473 103 187.601 102.688 186.961 102.064C186.337 101.44 186.025 100.568 186.025 99.448V94.312C186.025 93.192 186.337 92.32 186.961 91.696C187.601 91.072 188.473 90.76 189.577 90.76H194.785C195.009 90.76 195.121 90.872 195.121 91.096V102.664C195.121 102.888 195.009 103 194.785 103H193.705C193.481 103 193.369 102.888 193.369 102.664V101.728H193.273C192.873 102.576 192.057 103 190.825 103ZM193.369 99.256V92.512C193.369 92.368 193.289 92.296 193.129 92.296H189.769C188.441 92.296 187.777 92.992 187.777 94.384V99.376C187.777 100.768 188.441 101.464 189.769 101.464H191.137C191.857 101.464 192.409 101.272 192.793 100.888C193.177 100.504 193.369 99.96 193.369 99.256ZM199.413 106.768H198.357C198.133 106.768 198.021 106.656 198.021 106.432V105.544C198.021 105.32 198.133 105.208 198.357 105.208H198.957C199.981 105.208 200.701 104.92 201.117 104.344C201.453 103.88 201.757 103.216 202.029 102.352H201.333C201.141 102.352 201.005 102.24 200.925 102.016L197.397 91.096C197.333 90.872 197.413 90.76 197.637 90.76H198.789C198.997 90.76 199.133 90.872 199.197 91.096L202.293 100.984H202.389L205.485 91.096C205.533 90.872 205.661 90.76 205.869 90.76H206.973C207.245 90.76 207.341 90.88 207.261 91.12L203.685 102.52C203.285 103.88 202.773 104.928 202.149 105.664C201.541 106.4 200.629 106.768 199.413 106.768Z" fill="white"/>
</svg>
