<svg width="500" height="750" viewBox="0 0 500 750" fill="none" xmlns="http://www.w3.org/2000/svg">
<g id="Poker">
<rect id="PokerBase" x="-0.000488281" y="0.000244141" width="500" height="750" rx="35" fill="url(#paint0_linear_71_15)"/>
<g id="Decorators">
<path id="?&#226;&#128;&#168;?" d="M38.7704 81.0002H32.0504V73.0002C32.0504 71.4002 32.6904 70.0669 33.9704 69.0002L35.8904 67.4002C37.1704 66.3336 38.4504 65.8002 39.7304 65.8002H44.9304C45.8904 65.8002 46.5038 65.7736 46.7704 65.7202C47.0371 65.6136 47.4104 65.3736 47.8904 65.0002C48.3704 64.6269 48.6371 64.3336 48.6904 64.1202C48.7971 63.8536 48.8504 63.3202 48.8504 62.5202V49.8802C48.8504 49.0802 48.7971 48.5736 48.6904 48.3602C48.6371 48.0936 48.3704 47.7736 47.8904 47.4002C47.4104 47.0269 47.0371 46.8136 46.7704 46.7602C46.5038 46.6536 45.8904 46.6002 44.9304 46.6002H31.6504C30.6904 46.6002 30.0771 46.6536 29.8104 46.7602C29.5438 46.8136 29.1704 47.0269 28.6904 47.4002C28.2104 47.7736 27.9171 48.0936 27.8104 48.3602C27.7571 48.5736 27.7304 49.0802 27.7304 49.8802V51.4002H21.0104V48.2002C21.0104 46.6002 21.6504 45.2669 22.9304 44.2002L24.8504 42.6002C26.1304 41.5336 27.4104 41.0002 28.6904 41.0002H47.8904C49.1704 41.0002 50.4504 41.5336 51.7304 42.6002L53.6504 44.2002C54.9304 45.2669 55.5704 46.6002 55.5704 48.2002V64.7602C55.5704 65.9869 54.9838 67.0802 53.8104 68.0402L51.7304 69.8002C50.4504 70.8669 49.1704 71.4002 47.8904 71.4002H42.6904C41.7304 71.4002 41.1171 71.4536 40.8504 71.5602C40.5838 71.6136 40.2104 71.8269 39.7304 72.2002C39.2504 72.5736 38.9571 72.8936 38.8504 73.1602C38.7971 73.3736 38.7704 73.8802 38.7704 74.6802V81.0002ZM38.7704 94.1202V92.2802C38.7704 91.1602 38.5571 90.3869 38.1304 89.9602C37.7038 89.5869 36.8504 89.4002 35.5704 89.4002H35.2504C33.9704 89.4002 33.1438 89.5869 32.7704 89.9602C32.3971 90.2802 32.1838 90.5469 32.1304 90.7602C32.0771 90.9736 32.0504 91.4802 32.0504 92.2802V94.1202C32.0504 95.2402 32.2638 96.0136 32.6904 96.4402C33.1171 96.8136 33.9704 97.0002 35.2504 97.0002H35.6504C36.8771 97.0002 37.6771 96.8136 38.0504 96.4402C38.4238 96.1202 38.6371 95.8536 38.6904 95.6402C38.7438 95.4269 38.7704 94.9202 38.7704 94.1202ZM38.7704 161H32.0504V153C32.0504 151.4 32.6904 150.067 33.9704 149L35.8904 147.4C37.1704 146.334 38.4504 145.8 39.7304 145.8H44.9304C45.8904 145.8 46.5038 145.774 46.7704 145.72C47.0371 145.614 47.4104 145.374 47.8904 145C48.3704 144.627 48.6371 144.334 48.6904 144.12C48.7971 143.854 48.8504 143.32 48.8504 142.52V129.88C48.8504 129.08 48.7971 128.574 48.6904 128.36C48.6371 128.094 48.3704 127.774 47.8904 127.4C47.4104 127.027 47.0371 126.814 46.7704 126.76C46.5038 126.654 45.8904 126.6 44.9304 126.6H31.6504C30.6904 126.6 30.0771 126.654 29.8104 126.76C29.5438 126.814 29.1704 127.027 28.6904 127.4C28.2104 127.774 27.9171 128.094 27.8104 128.36C27.7571 128.574 27.7304 129.08 27.7304 129.88V131.4H21.0104V128.2C21.0104 126.6 21.6504 125.267 22.9304 124.2L24.8504 122.6C26.1304 121.534 27.4104 121 28.6904 121H47.8904C49.1704 121 50.4504 121.534 51.7304 122.6L53.6504 124.2C54.9304 125.267 55.5704 126.6 55.5704 128.2V144.76C55.5704 145.987 54.9838 147.08 53.8104 148.04L51.7304 149.8C50.4504 150.867 49.1704 151.4 47.8904 151.4H42.6904C41.7304 151.4 41.1171 151.454 40.8504 151.56C40.5838 151.614 40.2104 151.827 39.7304 152.2C39.2504 152.574 38.9571 152.894 38.8504 153.16C38.7971 153.374 38.7704 153.88 38.7704 154.68V161ZM38.7704 174.12V172.28C38.7704 171.16 38.5571 170.387 38.1304 169.96C37.7038 169.587 36.8504 169.4 35.5704 169.4H35.2504C33.9704 169.4 33.1438 169.587 32.7704 169.96C32.3971 170.28 32.1838 170.547 32.1304 170.76C32.0771 170.974 32.0504 171.48 32.0504 172.28V174.12C32.0504 175.24 32.2638 176.014 32.6904 176.44C33.1171 176.814 33.9704 177 35.2504 177H35.6504C36.8771 177 37.6771 176.814 38.0504 176.44C38.4238 176.12 38.6371 175.854 38.6904 175.64C38.7438 175.427 38.7704 174.92 38.7704 174.12Z" fill="white"/>
<path id="?&#226;&#128;&#168;?_2" d="M462.229 622H468.949V614C468.949 612.4 468.309 611.067 467.029 610L465.109 608.4C463.829 607.333 462.549 606.8 461.269 606.8H456.069C455.109 606.8 454.495 606.773 454.229 606.72C453.962 606.613 453.589 606.373 453.109 606C452.629 605.627 452.362 605.333 452.309 605.12C452.202 604.853 452.149 604.32 452.149 603.52V590.88C452.149 590.08 452.202 589.573 452.309 589.36C452.362 589.093 452.629 588.773 453.109 588.4C453.589 588.027 453.962 587.813 454.229 587.76C454.495 587.653 455.109 587.6 456.069 587.6H469.349C470.309 587.6 470.922 587.653 471.189 587.76C471.455 587.813 471.829 588.027 472.309 588.4C472.789 588.773 473.082 589.093 473.189 589.36C473.242 589.573 473.269 590.08 473.269 590.88V592.4H479.989V589.2C479.989 587.6 479.349 586.267 478.069 585.2L476.149 583.6C474.869 582.533 473.589 582 472.309 582H453.109C451.829 582 450.549 582.533 449.269 583.6L447.349 585.2C446.069 586.267 445.429 587.6 445.429 589.2V605.76C445.429 606.987 446.015 608.08 447.189 609.04L449.269 610.8C450.549 611.867 451.829 612.4 453.109 612.4H458.309C459.269 612.4 459.882 612.453 460.149 612.56C460.415 612.613 460.789 612.827 461.269 613.2C461.749 613.573 462.042 613.893 462.149 614.16C462.202 614.373 462.229 614.88 462.229 615.68V622ZM462.229 635.12V633.28C462.229 632.16 462.442 631.387 462.869 630.96C463.295 630.587 464.149 630.4 465.429 630.4H465.749C467.029 630.4 467.855 630.587 468.229 630.96C468.602 631.28 468.815 631.547 468.869 631.76C468.922 631.973 468.949 632.48 468.949 633.28V635.12C468.949 636.24 468.735 637.013 468.309 637.44C467.882 637.813 467.029 638 465.749 638H465.349C464.122 638 463.322 637.813 462.949 637.44C462.575 637.12 462.362 636.853 462.309 636.64C462.255 636.427 462.229 635.92 462.229 635.12ZM462.229 702H468.949V694C468.949 692.4 468.309 691.067 467.029 690L465.109 688.4C463.829 687.333 462.549 686.8 461.269 686.8H456.069C455.109 686.8 454.495 686.773 454.229 686.72C453.962 686.613 453.589 686.373 453.109 686C452.629 685.627 452.362 685.333 452.309 685.12C452.202 684.853 452.149 684.32 452.149 683.52V670.88C452.149 670.08 452.202 669.573 452.309 669.36C452.362 669.093 452.629 668.773 453.109 668.4C453.589 668.027 453.962 667.813 454.229 667.76C454.495 667.653 455.109 667.6 456.069 667.6H469.349C470.309 667.6 470.922 667.653 471.189 667.76C471.455 667.813 471.829 668.027 472.309 668.4C472.789 668.773 473.082 669.093 473.189 669.36C473.242 669.573 473.269 670.08 473.269 670.88V672.4H479.989V669.2C479.989 667.6 479.349 666.267 478.069 665.2L476.149 663.6C474.869 662.533 473.589 662 472.309 662H453.109C451.829 662 450.549 662.533 449.269 663.6L447.349 665.2C446.069 666.267 445.429 667.6 445.429 669.2V685.76C445.429 686.987 446.015 688.08 447.189 689.04L449.269 690.8C450.549 691.867 451.829 692.4 453.109 692.4H458.309C459.269 692.4 459.882 692.453 460.149 692.56C460.415 692.613 460.789 692.827 461.269 693.2C461.749 693.573 462.042 693.893 462.149 694.16C462.202 694.373 462.229 694.88 462.229 695.68V702ZM462.229 715.12V713.28C462.229 712.16 462.442 711.387 462.869 710.96C463.295 710.587 464.149 710.4 465.429 710.4H465.749C467.029 710.4 467.855 710.587 468.229 710.96C468.602 711.28 468.815 711.547 468.869 711.76C468.922 711.973 468.949 712.48 468.949 713.28V715.12C468.949 716.24 468.735 717.013 468.309 717.44C467.882 717.813 467.029 718 465.749 718H465.349C464.122 718 463.322 717.813 462.949 717.44C462.575 717.12 462.362 716.853 462.309 716.64C462.255 716.427 462.229 715.92 462.229 715.12Z" fill="white"/>
</g>
<g id="VZF">
<line id="Line 18" x1="256.857" y1="582.46" x2="369.444" y2="162.283" stroke="white" stroke-width="21"/>
<line id="Line 19" y1="-10.5" x2="435" y2="-10.5" transform="matrix(-0.258819 -0.965926 -0.965926 0.258819 249.656 585.178)" stroke="white" stroke-width="21"/>
<line id="Line 20" x1="62.9062" y1="324.557" x2="151.406" y2="171.271" stroke="white" stroke-width="21"/>
<line id="Line 21" x1="55.9995" y1="327.021" x2="420.999" y2="327.021" stroke="white" stroke-width="21"/>
<line id="Line 22" x1="413.349" y1="328.614" x2="146.613" y2="482.614" stroke="white" stroke-width="21"/>
<line id="Line 23" x1="445" y1="484.021" x2="137" y2="484.021" stroke="white" stroke-width="21"/>
</g>
</g>
<defs>
<linearGradient id="paint0_linear_71_15" x1="499.999" y1="0.000229731" x2="16.4995" y2="750" gradientUnits="userSpaceOnUse">
<stop offset="0.36"/>
<stop offset="1" stop-color="#9A9A9A"/>
</linearGradient>
</defs>
</svg>
