<svg width="640" height="890" viewBox="0 0 640 890" fill="none" xmlns="http://www.w3.org/2000/svg">
<g id="Poker">
<g id="PokerBase" filter="url(#filter0_d_71_15)">
<rect x="69.9995" y="70.0002" width="500" height="750" rx="35" fill="url(#paint0_linear_71_15)"/>
</g>
<g id="Decorators">
<path id="?&#226;&#128;&#168;?" d="M108.77 151H102.05V143C102.05 141.4 102.69 140.067 103.97 139L105.89 137.4C107.17 136.334 108.45 135.8 109.73 135.8H114.93C115.89 135.8 116.504 135.774 116.77 135.72C117.037 135.614 117.41 135.374 117.89 135C118.37 134.627 118.637 134.334 118.69 134.12C118.797 133.854 118.85 133.32 118.85 132.52V119.88C118.85 119.08 118.797 118.574 118.69 118.36C118.637 118.094 118.37 117.774 117.89 117.4C117.41 117.027 117.037 116.814 116.77 116.76C116.504 116.654 115.89 116.6 114.93 116.6H101.65C100.69 116.6 100.077 116.654 99.8104 116.76C99.5438 116.814 99.1704 117.027 98.6904 117.4C98.2104 117.774 97.9171 118.094 97.8104 118.36C97.7571 118.574 97.7304 119.08 97.7304 119.88V121.4H91.0104V118.2C91.0104 116.6 91.6504 115.267 92.9304 114.2L94.8504 112.6C96.1304 111.534 97.4104 111 98.6904 111H117.89C119.17 111 120.45 111.534 121.73 112.6L123.65 114.2C124.93 115.267 125.57 116.6 125.57 118.2V134.76C125.57 135.987 124.984 137.08 123.81 138.04L121.73 139.8C120.45 140.867 119.17 141.4 117.89 141.4H112.69C111.73 141.4 111.117 141.454 110.85 141.56C110.584 141.614 110.21 141.827 109.73 142.2C109.25 142.574 108.957 142.894 108.85 143.16C108.797 143.374 108.77 143.88 108.77 144.68V151ZM108.77 164.12V162.28C108.77 161.16 108.557 160.387 108.13 159.96C107.704 159.587 106.85 159.4 105.57 159.4H105.25C103.97 159.4 103.144 159.587 102.77 159.96C102.397 160.28 102.184 160.547 102.13 160.76C102.077 160.974 102.05 161.48 102.05 162.28V164.12C102.05 165.24 102.264 166.014 102.69 166.44C103.117 166.814 103.97 167 105.25 167H105.65C106.877 167 107.677 166.814 108.05 166.44C108.424 166.12 108.637 165.854 108.69 165.64C108.744 165.427 108.77 164.92 108.77 164.12ZM108.77 231H102.05V223C102.05 221.4 102.69 220.067 103.97 219L105.89 217.4C107.17 216.334 108.45 215.8 109.73 215.8H114.93C115.89 215.8 116.504 215.774 116.77 215.72C117.037 215.614 117.41 215.374 117.89 215C118.37 214.627 118.637 214.334 118.69 214.12C118.797 213.854 118.85 213.32 118.85 212.52V199.88C118.85 199.08 118.797 198.574 118.69 198.36C118.637 198.094 118.37 197.774 117.89 197.4C117.41 197.027 117.037 196.814 116.77 196.76C116.504 196.654 115.89 196.6 114.93 196.6H101.65C100.69 196.6 100.077 196.654 99.8104 196.76C99.5438 196.814 99.1704 197.027 98.6904 197.4C98.2104 197.774 97.9171 198.094 97.8104 198.36C97.7571 198.574 97.7304 199.08 97.7304 199.88V201.4H91.0104V198.2C91.0104 196.6 91.6504 195.267 92.9304 194.2L94.8504 192.6C96.1304 191.534 97.4104 191 98.6904 191H117.89C119.17 191 120.45 191.534 121.73 192.6L123.65 194.2C124.93 195.267 125.57 196.6 125.57 198.2V214.76C125.57 215.987 124.984 217.08 123.81 218.04L121.73 219.8C120.45 220.867 119.17 221.4 117.89 221.4H112.69C111.73 221.4 111.117 221.454 110.85 221.56C110.584 221.614 110.21 221.827 109.73 222.2C109.25 222.574 108.957 222.894 108.85 223.16C108.797 223.374 108.77 223.88 108.77 224.68V231ZM108.77 244.12V242.28C108.77 241.16 108.557 240.387 108.13 239.96C107.704 239.587 106.85 239.4 105.57 239.4H105.25C103.97 239.4 103.144 239.587 102.77 239.96C102.397 240.28 102.184 240.547 102.13 240.76C102.077 240.974 102.05 241.48 102.05 242.28V244.12C102.05 245.24 102.264 246.014 102.69 246.44C103.117 246.814 103.97 247 105.25 247H105.65C106.877 247 107.677 246.814 108.05 246.44C108.424 246.12 108.637 245.854 108.69 245.64C108.744 245.427 108.77 244.92 108.77 244.12Z" fill="white"/>
<path id="?&#226;&#128;&#168;?_2" d="M532.229 692H538.949V684C538.949 682.4 538.309 681.067 537.029 680L535.109 678.4C533.829 677.333 532.549 676.8 531.269 676.8H526.069C525.109 676.8 524.495 676.773 524.229 676.72C523.962 676.613 523.589 676.373 523.109 676C522.629 675.627 522.362 675.333 522.309 675.12C522.202 674.853 522.149 674.32 522.149 673.52V660.88C522.149 660.08 522.202 659.573 522.309 659.36C522.362 659.093 522.629 658.773 523.109 658.4C523.589 658.027 523.962 657.813 524.229 657.76C524.495 657.653 525.109 657.6 526.069 657.6H539.349C540.309 657.6 540.922 657.653 541.189 657.76C541.455 657.813 541.829 658.027 542.309 658.4C542.789 658.773 543.082 659.093 543.189 659.36C543.242 659.573 543.269 660.08 543.269 660.88V662.4H549.989V659.2C549.989 657.6 549.349 656.267 548.069 655.2L546.149 653.6C544.869 652.533 543.589 652 542.309 652H523.109C521.829 652 520.549 652.533 519.269 653.6L517.349 655.2C516.069 656.267 515.429 657.6 515.429 659.2V675.76C515.429 676.987 516.015 678.08 517.189 679.04L519.269 680.8C520.549 681.867 521.829 682.4 523.109 682.4H528.309C529.269 682.4 529.882 682.453 530.149 682.56C530.415 682.613 530.789 682.827 531.269 683.2C531.749 683.573 532.042 683.893 532.149 684.16C532.202 684.373 532.229 684.88 532.229 685.68V692ZM532.229 705.12V703.28C532.229 702.16 532.442 701.387 532.869 700.96C533.295 700.587 534.149 700.4 535.429 700.4H535.749C537.029 700.4 537.855 700.587 538.229 700.96C538.602 701.28 538.815 701.547 538.869 701.76C538.922 701.973 538.949 702.48 538.949 703.28V705.12C538.949 706.24 538.735 707.013 538.309 707.44C537.882 707.813 537.029 708 535.749 708H535.349C534.122 708 533.322 707.813 532.949 707.44C532.575 707.12 532.362 706.853 532.309 706.64C532.255 706.427 532.229 705.92 532.229 705.12ZM532.229 772H538.949V764C538.949 762.4 538.309 761.067 537.029 760L535.109 758.4C533.829 757.333 532.549 756.8 531.269 756.8H526.069C525.109 756.8 524.495 756.773 524.229 756.72C523.962 756.613 523.589 756.373 523.109 756C522.629 755.627 522.362 755.333 522.309 755.12C522.202 754.853 522.149 754.32 522.149 753.52V740.88C522.149 740.08 522.202 739.573 522.309 739.36C522.362 739.093 522.629 738.773 523.109 738.4C523.589 738.027 523.962 737.813 524.229 737.76C524.495 737.653 525.109 737.6 526.069 737.6H539.349C540.309 737.6 540.922 737.653 541.189 737.76C541.455 737.813 541.829 738.027 542.309 738.4C542.789 738.773 543.082 739.093 543.189 739.36C543.242 739.573 543.269 740.08 543.269 740.88V742.4H549.989V739.2C549.989 737.6 549.349 736.267 548.069 735.2L546.149 733.6C544.869 732.533 543.589 732 542.309 732H523.109C521.829 732 520.549 732.533 519.269 733.6L517.349 735.2C516.069 736.267 515.429 737.6 515.429 739.2V755.76C515.429 756.987 516.015 758.08 517.189 759.04L519.269 760.8C520.549 761.867 521.829 762.4 523.109 762.4H528.309C529.269 762.4 529.882 762.453 530.149 762.56C530.415 762.613 530.789 762.827 531.269 763.2C531.749 763.573 532.042 763.893 532.149 764.16C532.202 764.373 532.229 764.88 532.229 765.68V772ZM532.229 785.12V783.28C532.229 782.16 532.442 781.387 532.869 780.96C533.295 780.587 534.149 780.4 535.429 780.4H535.749C537.029 780.4 537.855 780.587 538.229 780.96C538.602 781.28 538.815 781.547 538.869 781.76C538.922 781.973 538.949 782.48 538.949 783.28V785.12C538.949 786.24 538.735 787.013 538.309 787.44C537.882 787.813 537.029 788 535.749 788H535.349C534.122 788 533.322 787.813 532.949 787.44C532.575 787.12 532.362 786.853 532.309 786.64C532.255 786.427 532.229 785.92 532.229 785.12Z" fill="white"/>
</g>
<g id="VZF">
<line id="Line 18" x1="326.857" y1="652.46" x2="439.444" y2="232.283" stroke="white" stroke-width="21"/>
<line id="Line 19" y1="-10.5" x2="435" y2="-10.5" transform="matrix(-0.258819 -0.965926 -0.965926 0.258819 319.656 655.178)" stroke="white" stroke-width="21"/>
<line id="Line 20" x1="132.906" y1="394.557" x2="221.406" y2="241.271" stroke="white" stroke-width="21"/>
<line id="Line 21" x1="126" y1="397.021" x2="490.999" y2="397.021" stroke="white" stroke-width="21"/>
<line id="Line 22" x1="483.349" y1="398.614" x2="216.613" y2="552.614" stroke="white" stroke-width="21"/>
<line id="Line 23" x1="515" y1="554.021" x2="207" y2="554.021" stroke="white" stroke-width="21"/>
</g>
</g>
<defs>
<filter id="filter0_d_71_15" x="-0.000488281" y="0.000244141" width="640" height="890" filterUnits="userSpaceOnUse" color-interpolation-filters="sRGB">
<feFlood flood-opacity="0" result="BackgroundImageFix"/>
<feColorMatrix in="SourceAlpha" type="matrix" values="0 0 0 0 0 0 0 0 0 0 0 0 0 0 0 0 0 0 127 0" result="hardAlpha"/>
<feMorphology radius="20" operator="dilate" in="SourceAlpha" result="effect1_dropShadow_71_15"/>
<feOffset/>
<feGaussianBlur stdDeviation="25"/>
<feComposite in2="hardAlpha" operator="out"/>
<feColorMatrix type="matrix" values="0 0 0 0 1 0 0 0 0 1 0 0 0 0 1 0 0 0 1 0"/>
<feBlend mode="normal" in2="BackgroundImageFix" result="effect1_dropShadow_71_15"/>
<feBlend mode="normal" in="SourceGraphic" in2="effect1_dropShadow_71_15" result="shape"/>
</filter>
<linearGradient id="paint0_linear_71_15" x1="569.999" y1="70.0002" x2="86.4995" y2="820" gradientUnits="userSpaceOnUse">
<stop offset="0.36"/>
<stop offset="1" stop-color="#9A9A9A"/>
</linearGradient>
</defs>
</svg>
