<svg width="731" height="223" viewBox="0 0 731 223" fill="none" xmlns="http://www.w3.org/2000/svg">
<g id="TitleSVG">
<g id="Title" filter="url(#filter0_d_102_15)">
<path d="M45.375 88.75H124.188V97.1875L64.1875 178.312H87.5625C94.4375 178.312 100.167 177.375 104.75 175.5C109.375 173.625 113.042 170.667 115.75 166.625C118.458 162.583 120.375 157.312 121.5 150.812H127.25L124.938 186H40.375V177.562L100.125 96.375H80.3125C74.1458 96.3333 68.9792 97.2083 64.8125 99C60.6458 100.792 57.2917 103.667 54.75 107.625C52.2083 111.542 50.2708 116.75 48.9375 123.25H43.1875L45.375 88.75ZM137.5 88.75H218.688L220.562 119.438H215.188C213.604 111.229 210.562 105.271 206.062 101.562C201.604 97.8125 195.438 96 187.562 96.125H181.438C178.729 96.1667 176.604 96.5625 175.062 97.3125C173.521 98.0625 172.458 99.2917 171.875 101C171.292 102.667 171.062 104.938 171.188 107.812V132.25H178.75C182.917 132.208 186.271 131.688 188.812 130.688C191.354 129.646 193.229 128 194.438 125.75C195.688 123.5 196.417 120.5 196.625 116.75H202.562V155.688H196.625C196.458 151.938 195.729 148.917 194.438 146.625C193.188 144.292 191.271 142.583 188.688 141.5C186.146 140.375 182.833 139.771 178.75 139.688H171.188V166.938C171.021 171.271 171.688 174.312 173.188 176.062C174.729 177.771 177.479 178.604 181.438 178.562H187.562C196.188 178.688 203 176.729 208 172.688C213.042 168.604 216.458 162.292 218.25 153.75H223.688L221.25 186H137.5V179.5C140.5 179.375 142.938 179.125 144.812 178.75C146.729 178.375 148.188 177.75 149.188 176.875C150.229 176 150.938 174.792 151.312 173.25C151.688 171.708 151.833 169.729 151.75 167.312V107.125C151.833 104.75 151.688 102.792 151.312 101.25C150.979 99.7083 150.292 98.5 149.25 97.625C148.25 96.75 146.792 96.125 144.875 95.75C142.958 95.3333 140.5 95.0833 137.5 95V88.75ZM237.812 88.75H272.375L317.562 156.062H318.062V116.375C318.104 111.292 317.625 107.25 316.625 104.25C315.667 101.25 314 99.0417 311.625 97.625C309.25 96.2083 306.021 95.3333 301.938 95V88.75H340.688V95C336.938 95.2917 334 96.1458 331.875 97.5625C329.75 98.9375 328.25 101.146 327.375 104.188C326.542 107.188 326.167 111.25 326.25 116.375V187.562H312.438L258.688 104.75H258.125V158.375C258.083 163.375 258.583 167.396 259.625 170.438C260.667 173.438 262.396 175.667 264.812 177.125C267.229 178.542 270.479 179.417 274.562 179.75V186H235.25V179.75C239 179.417 241.958 178.542 244.125 177.125C246.292 175.667 247.812 173.438 248.688 170.438C249.604 167.396 250.021 163.375 249.938 158.375V106.25C250.188 103.667 249.958 101.604 249.25 100.062C248.583 98.5208 247.333 97.3542 245.5 96.5625C243.667 95.7708 241.104 95.2083 237.812 94.875V88.75ZM394.875 88.75C400.458 88.75 405.312 89.0208 409.438 89.5625C413.604 90.0625 417.125 90.8542 420 91.9375C424.667 93.6458 428.292 96.3958 430.875 100.188C433.5 103.979 434.812 108.354 434.812 113.312C434.812 116.812 434.167 120.021 432.875 122.938C431.625 125.812 429.833 128.312 427.5 130.438C425.167 132.521 422.396 134.146 419.188 135.312C416.021 136.438 412.5 137 408.625 137H407.938V137.5C410.062 137.833 411.896 138.188 413.438 138.562C414.979 138.938 416.354 139.458 417.562 140.125C418.771 140.75 419.896 141.646 420.938 142.812C422.021 143.938 423.125 145.438 424.25 147.312C425.375 149.188 426.625 151.521 428 154.312C429.417 157.104 431.062 160.5 432.938 164.5C433.396 165.417 433.729 166.146 433.938 166.688C434.188 167.188 434.396 167.625 434.562 168C434.771 168.333 435 168.75 435.25 169.25C436.458 172.125 438.271 174.5 440.688 176.375C443.104 178.25 445.771 179.333 448.688 179.625V186H418.438C415.938 178.667 413.646 172.417 411.562 167.25C409.521 162.042 407.542 157.75 405.625 154.375C403.708 150.958 401.75 148.292 399.75 146.375C397.75 144.458 395.583 143.104 393.25 142.312C390.958 141.521 388.354 141.104 385.438 141.062H379.312V167.312C379.188 170.479 379.479 172.938 380.188 174.688C380.938 176.438 382.354 177.688 384.438 178.438C386.562 179.188 389.583 179.625 393.5 179.75V186H345.625V179.75C349.542 179.542 352.542 179.083 354.625 178.375C356.708 177.625 358.125 176.396 358.875 174.688C359.625 172.938 359.938 170.479 359.812 167.312V107.125C359.896 104.75 359.75 102.792 359.375 101.25C359.042 99.7083 358.354 98.5 357.312 97.625C356.312 96.75 354.854 96.125 352.938 95.75C351.062 95.3333 348.625 95.0833 345.625 95V88.75H394.875ZM388.75 133.625C396.875 133.625 403.042 131.979 407.25 128.688C411.458 125.354 413.562 120.479 413.562 114.062C413.562 111.104 413.104 108.479 412.188 106.188C411.271 103.896 409.896 102.042 408.062 100.625C406.271 99.2917 404.146 98.2083 401.688 97.375C399.271 96.5417 396.833 96.125 394.375 96.125H389.5C386.792 96.1667 384.667 96.5625 383.125 97.3125C381.583 98.0625 380.521 99.3125 379.938 101.062C379.396 102.812 379.188 105.229 379.312 108.312V133.625H388.75ZM454.562 88.75H508.062V95C504.312 95.1667 501.312 95.4375 499.062 95.8125C496.812 96.1458 495.104 96.7292 493.938 97.5625C492.812 98.3542 492.083 99.5208 491.75 101.062C491.417 102.604 491.271 104.625 491.312 107.125V167.312C491.229 169.812 491.375 171.854 491.75 173.438C492.125 174.979 492.896 176.188 494.062 177.062C495.229 177.896 496.938 178.521 499.188 178.938C501.438 179.312 504.396 179.583 508.062 179.75V186H454.562V179.75C458.271 179.542 461.25 179.25 463.5 178.875C465.75 178.458 467.438 177.833 468.562 177C469.729 176.125 470.5 174.917 470.875 173.375C471.25 171.833 471.396 169.812 471.312 167.312V107.125C471.396 104.625 471.25 102.604 470.875 101.062C470.542 99.5208 469.792 98.3333 468.625 97.5C467.5 96.6667 465.812 96.0833 463.562 95.75C461.312 95.375 458.312 95.125 454.562 95V88.75ZM516.5 88.75H597.688L599.562 119.438H594.188C592.604 111.229 589.562 105.271 585.062 101.562C580.604 97.8125 574.438 96 566.562 96.125H560.438C557.729 96.1667 555.604 96.5625 554.062 97.3125C552.521 98.0625 551.458 99.2917 550.875 101C550.292 102.667 550.062 104.938 550.188 107.812V132.25H557.75C561.917 132.208 565.271 131.688 567.812 130.688C570.354 129.646 572.229 128 573.438 125.75C574.688 123.5 575.417 120.5 575.625 116.75H581.562V155.688H575.625C575.458 151.938 574.729 148.917 573.438 146.625C572.188 144.292 570.271 142.583 567.688 141.5C565.146 140.375 561.833 139.771 557.75 139.688H550.188V166.938C550.021 171.271 550.688 174.312 552.188 176.062C553.729 177.771 556.479 178.604 560.438 178.562H566.562C575.188 178.688 582 176.729 587 172.688C592.042 168.604 595.458 162.292 597.25 153.75H602.688L600.25 186H516.5V179.5C519.5 179.375 521.938 179.125 523.812 178.75C525.729 178.375 527.188 177.75 528.188 176.875C529.229 176 529.938 174.792 530.312 173.25C530.688 171.708 530.833 169.729 530.75 167.312V107.125C530.833 104.75 530.688 102.792 530.312 101.25C529.979 99.7083 529.292 98.5 528.25 97.625C527.25 96.75 525.792 96.125 523.875 95.75C521.958 95.3333 519.5 95.0833 516.5 95V88.75ZM615.5 88.75H664.438V95C661.271 95.0833 658.688 95.3125 656.688 95.6875C654.729 96.0625 653.208 96.6875 652.125 97.5625C651.083 98.4375 650.375 99.6458 650 101.188C649.667 102.729 649.521 104.708 649.562 107.125V166.438C649.396 170.729 650.042 173.75 651.5 175.5C653 177.208 655.646 178.062 659.438 178.062H663.375C670.958 177.562 677 174.917 681.5 170.125C686.042 165.333 688.833 158.729 689.875 150.312H695.625L692.938 186H615.5V179.75C619.458 179.542 622.479 179.083 624.562 178.375C626.646 177.625 628.062 176.396 628.812 174.688C629.562 172.938 629.875 170.479 629.75 167.312V107.125C629.833 104.75 629.688 102.792 629.312 101.25C628.979 99.7083 628.292 98.5 627.25 97.625C626.25 96.75 624.792 96.125 622.875 95.75C620.958 95.3333 618.5 95.0833 615.5 95V88.75Z" fill="white"/>
</g>
<g id="subTitle" filter="url(#filter1_d_102_15)">
<path d="M60.5977 47.3555C60.1419 45.6758 59.4648 44.2305 58.5664 43.0195C57.668 41.8086 56.6003 40.8776 55.3633 40.2266C54.1263 39.5625 52.7656 39.2305 51.2812 39.2305C49.9531 39.2305 48.7357 39.5625 47.6289 40.2266C46.5352 40.8906 45.5846 41.8281 44.7773 43.0391C43.9831 44.25 43.3646 45.6888 42.9219 47.3555C42.4922 49.0091 42.2773 50.8385 42.2773 52.8438C42.2773 54.7708 42.5182 56.5221 43 58.0977C43.4948 59.6602 44.1979 61.0013 45.1094 62.1211C46.0339 63.2409 47.1341 64.1003 48.4102 64.6992C49.6862 65.2982 51.112 65.5977 52.6875 65.5977C54.1979 65.5977 55.5781 65.3177 56.8281 64.7578C58.0781 64.1849 59.1654 63.3646 60.0898 62.2969C61.0143 61.2161 61.7435 59.9141 62.2773 58.3906L64.1133 59.4453C63.4232 61.4245 62.4271 63.1172 61.125 64.5234C59.8229 65.9167 58.2669 66.9779 56.457 67.707C54.6602 68.4362 52.6549 68.8008 50.4414 68.8008C48.2148 68.8008 46.1836 68.4232 44.3477 67.668C42.5117 66.8997 40.9232 65.819 39.582 64.4258C38.2539 63.0195 37.2253 61.3594 36.4961 59.4453C35.7669 57.5182 35.4023 55.3958 35.4023 53.0781C35.4023 50.6302 35.7669 48.4102 36.4961 46.418C37.2253 44.4128 38.2669 42.694 39.6211 41.2617C40.9753 39.8294 42.5964 38.7292 44.4844 37.9609C46.3724 37.1927 48.4753 36.8086 50.793 36.8086C51.9779 36.8086 53.1823 36.9518 54.4062 37.2383C55.6432 37.5117 56.9193 37.9544 58.2344 38.5664C58.5339 38.6836 58.8008 38.7812 59.0352 38.8594C59.2695 38.9245 59.4844 38.957 59.6797 38.957C60.0052 38.9701 60.2331 38.8529 60.3633 38.6055C60.5065 38.3581 60.5846 37.9154 60.5977 37.2773H62.4727V47.3555H60.5977ZM80.5977 45.5977C82.2904 45.5977 83.8659 45.8581 85.3242 46.3789C86.7826 46.8997 88.0586 47.6549 89.1523 48.6445C90.2591 49.6341 91.1185 50.8451 91.7305 52.2773C92.3555 53.6966 92.668 55.3112 92.668 57.1211C92.668 58.9961 92.3555 60.6562 91.7305 62.1016C91.1185 63.5469 90.2591 64.7708 89.1523 65.7734C88.0586 66.763 86.7826 67.5117 85.3242 68.0195C83.8659 68.5404 82.2904 68.8008 80.5977 68.8008C78.9049 68.8008 77.3229 68.5404 75.8516 68.0195C74.3932 67.5117 73.1107 66.763 72.0039 65.7734C70.9102 64.7708 70.0508 63.5469 69.4258 62.1016C68.8138 60.6562 68.5078 58.9961 68.5078 57.1211C68.5078 55.3112 68.8138 53.6966 69.4258 52.2773C70.0508 50.8451 70.9102 49.6341 72.0039 48.6445C73.1107 47.6549 74.3932 46.8997 75.8516 46.3789C77.3229 45.8581 78.9049 45.5977 80.5977 45.5977ZM80.5977 47.7266C79.8815 47.7266 79.1784 47.9154 78.4883 48.293C77.7982 48.6576 77.1797 49.2174 76.6328 49.9727C76.0859 50.7279 75.6497 51.6979 75.3242 52.8828C74.9987 54.0547 74.8359 55.4544 74.8359 57.082C74.8359 58.7357 74.9987 60.1615 75.3242 61.3594C75.6497 62.5573 76.0859 63.5469 76.6328 64.3281C77.1797 65.0964 77.7982 65.6693 78.4883 66.0469C79.1784 66.4115 79.8815 66.5938 80.5977 66.5938C81.3138 66.5938 82.0104 66.4115 82.6875 66.0469C83.3776 65.6693 83.9961 65.0964 84.543 64.3281C85.1029 63.5469 85.5456 62.5573 85.8711 61.3594C86.1966 60.1615 86.3594 58.7357 86.3594 57.082C86.3594 55.4544 86.1966 54.0547 85.8711 52.8828C85.5456 51.6979 85.1029 50.7279 84.543 49.9727C83.9961 49.2174 83.3776 48.6576 82.6875 48.293C82.0104 47.9154 81.3138 47.7266 80.5977 47.7266ZM104.25 48.7227C104.602 48.1888 105.09 47.6875 105.715 47.2188C106.353 46.737 107.062 46.3464 107.844 46.0469C108.638 45.7474 109.426 45.5977 110.207 45.5977C110.845 45.5977 111.457 45.6628 112.043 45.793C112.642 45.9232 113.202 46.151 113.723 46.4766C114.243 46.8021 114.719 47.2188 115.148 47.7266C115.578 48.2344 115.943 48.8724 116.242 49.6406C117.01 48.4036 117.928 47.4206 118.996 46.6914C120.077 45.9622 121.438 45.5977 123.078 45.5977C123.781 45.5977 124.543 45.7214 125.363 45.9688C126.197 46.2161 126.945 46.6654 127.609 47.3164C128.286 47.9935 128.833 48.8464 129.25 49.875C129.667 50.9036 129.875 52.2122 129.875 53.8008V62.7656C129.875 63.3646 129.888 63.8464 129.914 64.2109C129.953 64.5625 130.031 64.8424 130.148 65.0508C130.266 65.2591 130.441 65.4414 130.676 65.5977C130.897 65.7279 131.138 65.8385 131.398 65.9297C131.659 66.0208 131.991 66.0859 132.395 66.125V68H121.926V66.125C122.264 66.099 122.564 66.0339 122.824 65.9297C123.098 65.8255 123.319 65.7148 123.488 65.5977C123.697 65.4414 123.859 65.2591 123.977 65.0508C124.094 64.8424 124.172 64.5625 124.211 64.2109C124.263 63.8464 124.289 63.3646 124.289 62.7656V54.5234C124.289 53.3776 124.191 52.4792 123.996 51.8281C123.801 51.1771 123.534 50.6628 123.195 50.2852C122.831 49.8815 122.44 49.6276 122.023 49.5234C121.607 49.4193 121.21 49.3672 120.832 49.3672C120.09 49.3672 119.458 49.5625 118.938 49.9531C118.417 50.3438 117.993 50.832 117.668 51.418C117.355 51.9909 117.134 52.5573 117.004 53.1172V62.7656C117.004 63.3646 117.023 63.8464 117.062 64.2109C117.115 64.5755 117.199 64.862 117.316 65.0703C117.434 65.2786 117.596 65.4544 117.805 65.5977C117.987 65.7148 118.182 65.8255 118.391 65.9297C118.612 66.0208 118.84 66.0859 119.074 66.125V68H109.25V66.125C109.562 66.0859 109.829 66.0208 110.051 65.9297C110.272 65.8385 110.48 65.7279 110.676 65.5977C110.91 65.4414 111.079 65.2591 111.184 65.0508C111.301 64.8424 111.379 64.5625 111.418 64.2109C111.457 63.8464 111.477 63.3646 111.477 62.7656V54.5625C111.477 53.4167 111.379 52.5117 111.184 51.8477C111.001 51.1836 110.741 50.6628 110.402 50.2852C110.038 49.8815 109.654 49.6276 109.25 49.5234C108.846 49.4193 108.443 49.3672 108.039 49.3672C107.518 49.3672 107.03 49.4844 106.574 49.7188C106.132 49.9401 105.741 50.2396 105.402 50.6172C105.077 50.9948 104.823 51.4049 104.641 51.8477C104.458 52.2904 104.367 52.7266 104.367 53.1562V62.7656C104.367 63.6641 104.413 64.3151 104.504 64.7188C104.608 65.1094 104.829 65.4023 105.168 65.5977C105.363 65.7148 105.552 65.8255 105.734 65.9297C105.93 66.0208 106.151 66.0859 106.398 66.125V68H96.125V66.125C96.9193 66.0469 97.5312 65.8711 97.9609 65.5977C98.2474 65.4154 98.4492 65.1224 98.5664 64.7188C98.6966 64.3151 98.7617 63.6641 98.7617 62.7656V51.6328C98.7617 50.7344 98.7096 50.0898 98.6055 49.6992C98.5143 49.2956 98.2995 48.9961 97.9609 48.8008C97.362 48.4492 96.75 48.2734 96.125 48.2734V46.3984C96.8411 46.3984 97.6549 46.3724 98.5664 46.3203C99.4909 46.2552 100.441 46.1641 101.418 46.0469C102.395 45.9167 103.339 45.7669 104.25 45.5977V48.7227ZM143.82 48.918C144.289 48.2799 144.914 47.7135 145.695 47.2188C146.477 46.7109 147.368 46.3138 148.371 46.0273C149.374 45.7409 150.441 45.5977 151.574 45.5977C152.863 45.5977 154.107 45.819 155.305 46.2617C156.516 46.6914 157.59 47.3555 158.527 48.2539C159.478 49.1393 160.227 50.2656 160.773 51.6328C161.333 53 161.613 54.6146 161.613 56.4766C161.613 57.9349 161.418 59.237 161.027 60.3828C160.65 61.5286 160.122 62.5247 159.445 63.3711C158.781 64.2174 158.013 64.9206 157.141 65.4805C156.268 66.0273 155.344 66.4375 154.367 66.7109C153.404 66.9844 152.434 67.1211 151.457 67.1211C149.947 67.1211 148.547 66.9128 147.258 66.4961C145.982 66.0794 144.986 65.4349 144.27 64.5625V67.5117C144.27 68.1107 144.296 68.5924 144.348 68.957C144.4 69.3216 144.491 69.6081 144.621 69.8164C144.764 70.0247 144.953 70.207 145.188 70.3633C145.461 70.5326 145.839 70.6562 146.32 70.7344C146.802 70.8255 147.434 70.8711 148.215 70.8711V72.7656H135.109V70.8711C135.643 70.8711 136.125 70.8255 136.555 70.7344C136.997 70.6432 137.368 70.5195 137.668 70.3633C137.902 70.2201 138.078 70.0443 138.195 69.8359C138.326 69.6276 138.41 69.3346 138.449 68.957C138.488 68.5924 138.508 68.1107 138.508 67.5117V51.6328C138.508 50.7344 138.456 50.0898 138.352 49.6992C138.247 49.2956 138.02 48.9961 137.668 48.8008C137.368 48.6445 136.997 48.5208 136.555 48.4297C136.125 48.3255 135.643 48.2734 135.109 48.2734V46.3984C135.995 46.3984 136.932 46.3724 137.922 46.3203C138.924 46.2552 139.934 46.1641 140.949 46.0469C141.965 45.9167 142.922 45.7669 143.82 45.5977V48.918ZM149.543 49.0352C148.605 49.0352 147.707 49.3086 146.848 49.8555C145.988 50.4023 145.311 51.1836 144.816 52.1992C144.582 52.694 144.361 53.2799 144.152 53.957C143.957 54.6341 143.859 55.4219 143.859 56.3203C143.859 57.1146 143.911 57.9023 144.016 58.6836C144.12 59.4648 144.257 60.1029 144.426 60.5977C144.686 61.3659 145.077 62.0169 145.598 62.5508C146.132 63.0846 146.737 63.4883 147.414 63.7617C148.091 64.0221 148.762 64.1523 149.426 64.1523C150.168 64.1523 150.891 64.0156 151.594 63.7422C152.31 63.4557 152.961 63.013 153.547 62.4141C154.133 61.8021 154.595 61.0143 154.934 60.0508C155.285 59.0742 155.461 57.8958 155.461 56.5156C155.461 55.0443 155.285 53.8268 154.934 52.8633C154.582 51.8997 154.12 51.138 153.547 50.5781C152.974 50.0182 152.336 49.6211 151.633 49.3867C150.943 49.1523 150.246 49.0352 149.543 49.0352ZM173.664 59.5234C173.664 60.7604 173.781 61.7435 174.016 62.4727C174.25 63.1888 174.556 63.7357 174.934 64.1133C175.337 64.5169 175.767 64.7904 176.223 64.9336C176.691 65.0638 177.147 65.1289 177.59 65.1289C178.28 65.1289 178.964 64.9531 179.641 64.6016C180.331 64.25 180.943 63.7878 181.477 63.2148C182.01 62.6289 182.395 61.9974 182.629 61.3203V51.7109C182.629 50.7734 182.577 50.1029 182.473 49.6992C182.382 49.2956 182.167 48.9961 181.828 48.8008C181.503 48.6185 181.118 48.4883 180.676 48.4102C180.233 48.319 179.68 48.2734 179.016 48.2734V46.3984C179.992 46.3984 181.014 46.3724 182.082 46.3203C183.163 46.2552 184.243 46.1641 185.324 46.0469C186.405 45.9167 187.44 45.7669 188.43 45.5977V62.7266C188.43 63.638 188.475 64.2956 188.566 64.6992C188.671 65.1029 188.885 65.4023 189.211 65.5977C189.536 65.7799 189.908 65.9167 190.324 66.0078C190.754 66.0859 191.229 66.125 191.75 66.125V68H183.098L182.785 65.0703C182.434 65.474 182.017 65.8906 181.535 66.3203C181.066 66.75 180.513 67.1536 179.875 67.5312C179.237 67.8958 178.501 68.1888 177.668 68.4102C176.835 68.6445 175.884 68.7617 174.816 68.7617C174.309 68.7617 173.762 68.6966 173.176 68.5664C172.59 68.4492 172.01 68.2409 171.438 67.9414C170.865 67.6419 170.337 67.2318 169.855 66.7109C169.296 66.099 168.827 65.3112 168.449 64.3477C168.085 63.3841 167.902 62.1732 167.902 60.7148V51.6328C167.902 50.7344 167.844 50.0898 167.727 49.6992C167.622 49.2956 167.401 48.9961 167.062 48.8008C166.464 48.4492 165.572 48.2734 164.387 48.2734V46.3984C165.324 46.3984 166.32 46.3724 167.375 46.3203C168.443 46.2552 169.51 46.1641 170.578 46.0469C171.659 45.9167 172.688 45.7669 173.664 45.5977V59.5234ZM201.691 39.5234H203.332V46.3984H210.09V48.7227H203.332V61.7109C203.332 62.5443 203.397 63.1628 203.527 63.5664C203.671 63.9701 203.885 64.3021 204.172 64.5625C204.445 64.8099 204.771 64.9857 205.148 65.0898C205.539 65.194 205.891 65.2461 206.203 65.2461C206.828 65.2461 207.466 65.0573 208.117 64.6797C208.781 64.3021 209.348 63.8203 209.816 63.2344L211.047 65.3633C210.148 66.3398 209.133 67.1146 208 67.6875C206.867 68.2474 205.591 68.5273 204.172 68.5273C203.091 68.5273 202.121 68.3711 201.262 68.0586C200.402 67.7461 199.745 67.3424 199.289 66.8477C198.651 66.1576 198.202 65.3763 197.941 64.5039C197.694 63.6315 197.57 62.5443 197.57 61.2422V48.7227H193.449V46.3984C194.647 46.3854 195.708 46.1771 196.633 45.7734C197.557 45.3568 198.358 44.8099 199.035 44.1328C199.712 43.4557 200.266 42.7201 200.695 41.9258C201.138 41.1185 201.47 40.3177 201.691 39.5234ZM225.344 45.5977C226.047 45.5977 226.802 45.6758 227.609 45.832C228.43 45.9753 229.25 46.2161 230.07 46.5547C230.904 46.8932 231.698 47.3424 232.453 47.9023C233.208 48.4622 233.885 49.1458 234.484 49.9531C235.083 50.7604 235.552 51.7109 235.891 52.8047C236.242 53.8854 236.418 55.1354 236.418 56.5547V57.5117H220.656V57.7656C220.656 59.6406 220.969 61.1706 221.594 62.3555C222.232 63.5404 223.091 64.4193 224.172 64.9922C225.266 65.5521 226.496 65.832 227.863 65.832C228.931 65.832 229.908 65.6367 230.793 65.2461C231.678 64.8424 232.453 64.3151 233.117 63.6641C233.794 63.013 234.348 62.3229 234.777 61.5938L236.262 63.3516C235.819 64.0677 235.292 64.7513 234.68 65.4023C234.081 66.0534 233.378 66.6328 232.57 67.1406C231.763 67.6484 230.839 68.0521 229.797 68.3516C228.768 68.651 227.603 68.8008 226.301 68.8008C224.543 68.8008 222.928 68.5404 221.457 68.0195C219.986 67.4987 218.71 66.737 217.629 65.7344C216.548 64.7318 215.715 63.5143 215.129 62.082C214.543 60.6497 214.25 59.0221 214.25 57.1992C214.25 55.4414 214.536 53.8529 215.109 52.4336C215.682 51.0013 216.47 49.7773 217.473 48.7617C218.488 47.7461 219.667 46.9648 221.008 46.418C222.362 45.8711 223.807 45.5977 225.344 45.5977ZM225.5 47.7266C224.94 47.7266 224.387 47.8633 223.84 48.1367C223.293 48.4102 222.792 48.8464 222.336 49.4453C221.88 50.0312 221.503 50.806 221.203 51.7695C220.917 52.7331 220.747 53.9049 220.695 55.2852H229.973C229.973 54.6862 229.921 54.0677 229.816 53.4297C229.712 52.7786 229.569 52.1602 229.387 51.5742C229.217 50.9883 229.016 50.487 228.781 50.0703C228.443 49.4323 228 48.8854 227.453 48.4297C226.919 47.9609 226.268 47.7266 225.5 47.7266ZM249.152 50.0312C249.608 49.3542 250.077 48.7747 250.559 48.293C251.053 47.7982 251.529 47.3815 251.984 47.043C252.544 46.6263 253.182 46.2812 253.898 46.0078C254.615 45.7344 255.363 45.5977 256.145 45.5977C256.952 45.5977 257.648 45.7604 258.234 46.0859C258.833 46.4115 259.296 46.8346 259.621 47.3555C259.947 47.8763 260.109 48.4362 260.109 49.0352C260.109 49.6211 259.973 50.1419 259.699 50.5977C259.439 51.0404 259.087 51.3919 258.645 51.6523C258.215 51.9128 257.753 52.043 257.258 52.043C256.607 52.043 256.06 51.9128 255.617 51.6523C255.188 51.3789 254.862 51.0339 254.641 50.6172C254.432 50.2005 254.335 49.7643 254.348 49.3086C254.361 48.8398 254.491 48.4036 254.738 48C254.465 48.013 254.146 48.1367 253.781 48.3711C253.43 48.5924 253.085 48.8594 252.746 49.1719C252.408 49.4714 252.115 49.7578 251.867 50.0312C251.333 50.6302 250.845 51.2617 250.402 51.9258C249.96 52.5898 249.582 53.3451 249.27 54.1914V62.7656C249.27 63.6641 249.315 64.3151 249.406 64.7188C249.51 65.1094 249.732 65.4023 250.07 65.5977C250.37 65.7799 250.754 65.9167 251.223 66.0078C251.691 66.0859 252.303 66.125 253.059 66.125V68H239.953V66.125C240.604 66.125 241.151 66.0794 241.594 65.9883C242.036 65.8971 242.408 65.7669 242.707 65.5977C243.072 65.4023 243.299 65.1094 243.391 64.7188C243.495 64.3151 243.547 63.6641 243.547 62.7656V51.6328C243.547 50.7344 243.495 50.0898 243.391 49.6992C243.299 49.2956 243.072 48.9961 242.707 48.8008C242.408 48.6445 242.036 48.5208 241.594 48.4297C241.151 48.3255 240.604 48.2734 239.953 48.2734V46.3984C240.917 46.3984 241.926 46.3724 242.98 46.3203C244.048 46.2552 245.109 46.1641 246.164 46.0469C247.219 45.9167 248.215 45.7669 249.152 45.5977V50.0312ZM280.773 56.6719C281.021 58 281.392 59.1979 281.887 60.2656C282.382 61.3333 283.039 62.349 283.859 63.3125C284.706 64.3151 285.773 65.0964 287.062 65.6562C288.365 66.2031 289.764 66.4766 291.262 66.4766C292.564 66.4766 293.684 66.2878 294.621 65.9102C295.572 65.5195 296.301 64.9727 296.809 64.2695C297.316 63.5534 297.57 62.7005 297.57 61.7109C297.57 60.2656 297.036 59.1914 295.969 58.4883C295.708 58.306 295.35 58.0846 294.895 57.8242C294.439 57.5638 293.924 57.2904 293.352 57.0039C292.779 56.7044 292.186 56.4115 291.574 56.125C290.975 55.8255 290.402 55.5586 289.855 55.3242L287.57 54.3281C285.044 53.2083 283.02 51.9648 281.496 50.5977C280.715 49.9076 280.142 49.1328 279.777 48.2734C279.426 47.401 279.25 46.3789 279.25 45.207C279.25 43.931 279.51 42.7786 280.031 41.75C280.552 40.7214 281.301 39.8424 282.277 39.1133C283.254 38.3711 284.419 37.8047 285.773 37.4141C287.141 37.0104 288.671 36.8086 290.363 36.8086C291.066 36.8086 291.75 36.8672 292.414 36.9844C293.078 37.0885 293.788 37.2643 294.543 37.5117C295.311 37.7591 296.19 38.0977 297.18 38.5273C297.44 38.6185 297.655 38.6901 297.824 38.7422C297.993 38.7943 298.137 38.8138 298.254 38.8008C298.618 38.7617 298.859 38.2669 298.977 37.3164H301.164V46.9258H299.367C298.833 45.3503 298.124 43.9701 297.238 42.7852C296.353 41.6003 295.363 40.6823 294.27 40.0312C293.176 39.3672 292.049 39.0352 290.891 39.0352C289.172 39.0352 287.811 39.4388 286.809 40.2461C285.819 41.0534 285.324 42.1602 285.324 43.5664C285.324 44.2435 285.435 44.8164 285.656 45.2852C285.891 45.7409 286.249 46.138 286.73 46.4766C287.473 46.9714 288.215 47.4206 288.957 47.8242C289.712 48.2279 290.546 48.6185 291.457 48.9961L293.645 49.9141C294.908 50.4349 295.969 50.9036 296.828 51.3203C297.701 51.724 298.436 52.1081 299.035 52.4727C299.634 52.8242 300.161 53.1888 300.617 53.5664C301.62 54.3607 302.382 55.3242 302.902 56.457C303.423 57.5768 303.684 58.8008 303.684 60.1289C303.684 61.6393 303.443 62.9089 302.961 63.9375C302.492 64.9531 301.698 65.8516 300.578 66.6328C299.536 67.388 298.319 67.9349 296.926 68.2734C295.546 68.625 293.853 68.8008 291.848 68.8008C290.572 68.8008 289.445 68.7357 288.469 68.6055C287.492 68.4753 286.594 68.2669 285.773 67.9805C284.966 67.694 284.152 67.3164 283.332 66.8477C282.954 66.6003 282.674 66.4375 282.492 66.3594C282.31 66.2812 282.134 66.2552 281.965 66.2812C281.717 66.2943 281.477 66.5221 281.242 66.9648C281.021 67.3945 280.891 67.9023 280.852 68.4883H278.82V56.6719H280.773ZM320.52 45.5977C321.822 45.5977 322.941 45.7279 323.879 45.9883C324.816 46.2487 325.604 46.5677 326.242 46.9453C326.88 47.3229 327.401 47.7005 327.805 48.0781C328.326 48.5729 328.71 49.1003 328.957 49.6602C329.204 50.207 329.328 50.7214 329.328 51.2031C329.328 51.8021 329.191 52.3294 328.918 52.7852C328.658 53.2409 328.306 53.599 327.863 53.8594C327.434 54.1068 326.971 54.2305 326.477 54.2305C325.904 54.2305 325.396 54.0938 324.953 53.8203C324.51 53.5469 324.159 53.2083 323.898 52.8047C323.651 52.401 323.527 51.9974 323.527 51.5938C323.527 50.9167 323.664 50.3503 323.938 49.8945C324.224 49.4388 324.595 49.1003 325.051 48.8789C324.829 48.5794 324.38 48.3125 323.703 48.0781C323.026 47.8438 322.219 47.7266 321.281 47.7266C320.174 47.7266 319.159 48.0456 318.234 48.6836C317.31 49.3216 316.568 50.2982 316.008 51.6133C315.448 52.9284 315.168 54.6016 315.168 56.6328C315.168 58.1302 315.318 59.4128 315.617 60.4805C315.93 61.5352 316.34 62.4141 316.848 63.1172C317.355 63.8073 317.909 64.3477 318.508 64.7383C319.12 65.1289 319.725 65.4023 320.324 65.5586C320.936 65.7148 321.496 65.793 322.004 65.793C323.137 65.793 324.126 65.5977 324.973 65.207C325.832 64.8034 326.561 64.2956 327.16 63.6836C327.772 63.0586 328.267 62.4206 328.645 61.7695L330.012 63.3906C329.686 63.9375 329.27 64.5234 328.762 65.1484C328.254 65.7604 327.609 66.3464 326.828 66.9062C326.047 67.4661 325.096 67.9219 323.977 68.2734C322.857 68.625 321.535 68.8008 320.012 68.8008C318.397 68.8008 316.9 68.5469 315.52 68.0391C314.139 67.5312 312.935 66.7826 311.906 65.793C310.878 64.8034 310.077 63.5924 309.504 62.1602C308.931 60.7148 308.645 59.0612 308.645 57.1992C308.645 55.3893 308.938 53.7682 309.523 52.3359C310.122 50.9036 310.956 49.6862 312.023 48.6836C313.104 47.681 314.367 46.9193 315.812 46.3984C317.258 45.8646 318.827 45.5977 320.52 45.5977ZM340.539 35.7148C341.216 35.7148 341.828 35.8841 342.375 36.2227C342.922 36.5482 343.358 36.9844 343.684 37.5312C344.022 38.0781 344.191 38.6901 344.191 39.3672C344.191 40.0312 344.022 40.6432 343.684 41.2031C343.358 41.75 342.922 42.1862 342.375 42.5117C341.828 42.8372 341.216 43 340.539 43C339.875 43 339.27 42.8372 338.723 42.5117C338.176 42.1862 337.733 41.75 337.395 41.2031C337.069 40.6432 336.906 40.0312 336.906 39.3672C336.906 38.6901 337.069 38.0781 337.395 37.5312C337.733 36.9844 338.176 36.5482 338.723 36.2227C339.27 35.8841 339.875 35.7148 340.539 35.7148ZM343.547 62.6484C343.547 63.2474 343.566 63.7292 343.605 64.0938C343.658 64.4453 343.742 64.7318 343.859 64.9531C343.977 65.1615 344.139 65.3503 344.348 65.5195C344.621 65.7409 344.992 65.8971 345.461 65.9883C345.93 66.0794 346.542 66.125 347.297 66.125V68H334.055V66.125C334.875 66.125 335.52 66.0794 335.988 65.9883C336.47 65.8971 336.854 65.7409 337.141 65.5195C337.362 65.3503 337.525 65.1615 337.629 64.9531C337.746 64.7318 337.824 64.4453 337.863 64.0938C337.915 63.7292 337.941 63.2474 337.941 62.6484V51.6328C337.941 50.7344 337.889 50.0898 337.785 49.6992C337.694 49.2956 337.479 48.9961 337.141 48.8008C336.841 48.6185 336.47 48.4883 336.027 48.4102C335.598 48.319 335.064 48.2734 334.426 48.2734V46.3984C335.376 46.3984 336.372 46.3724 337.414 46.3203C338.456 46.2552 339.497 46.1641 340.539 46.0469C341.594 45.9167 342.596 45.7669 343.547 45.5977V62.6484ZM361.516 45.5977C362.219 45.5977 362.974 45.6758 363.781 45.832C364.602 45.9753 365.422 46.2161 366.242 46.5547C367.076 46.8932 367.87 47.3424 368.625 47.9023C369.38 48.4622 370.057 49.1458 370.656 49.9531C371.255 50.7604 371.724 51.7109 372.062 52.8047C372.414 53.8854 372.59 55.1354 372.59 56.5547V57.5117H356.828V57.7656C356.828 59.6406 357.141 61.1706 357.766 62.3555C358.404 63.5404 359.263 64.4193 360.344 64.9922C361.438 65.5521 362.668 65.832 364.035 65.832C365.103 65.832 366.079 65.6367 366.965 65.2461C367.85 64.8424 368.625 64.3151 369.289 63.6641C369.966 63.013 370.52 62.3229 370.949 61.5938L372.434 63.3516C371.991 64.0677 371.464 64.7513 370.852 65.4023C370.253 66.0534 369.549 66.6328 368.742 67.1406C367.935 67.6484 367.01 68.0521 365.969 68.3516C364.94 68.651 363.775 68.8008 362.473 68.8008C360.715 68.8008 359.1 68.5404 357.629 68.0195C356.158 67.4987 354.882 66.737 353.801 65.7344C352.72 64.7318 351.887 63.5143 351.301 62.082C350.715 60.6497 350.422 59.0221 350.422 57.1992C350.422 55.4414 350.708 53.8529 351.281 52.4336C351.854 51.0013 352.642 49.7773 353.645 48.7617C354.66 47.7461 355.839 46.9648 357.18 46.418C358.534 45.8711 359.979 45.5977 361.516 45.5977ZM361.672 47.7266C361.112 47.7266 360.559 47.8633 360.012 48.1367C359.465 48.4102 358.964 48.8464 358.508 49.4453C358.052 50.0312 357.674 50.806 357.375 51.7695C357.089 52.7331 356.919 53.9049 356.867 55.2852H366.145C366.145 54.6862 366.092 54.0677 365.988 53.4297C365.884 52.7786 365.741 52.1602 365.559 51.5742C365.389 50.9883 365.188 50.487 364.953 50.0703C364.615 49.4323 364.172 48.8854 363.625 48.4297C363.091 47.9609 362.44 47.7266 361.672 47.7266ZM385.402 48.9961C386.014 48.3581 386.698 47.7852 387.453 47.2773C388.208 46.7565 389.055 46.3464 389.992 46.0469C390.943 45.7474 392.01 45.5977 393.195 45.5977C393.755 45.5977 394.335 45.6628 394.934 45.793C395.546 45.9232 396.132 46.138 396.691 46.4375C397.251 46.737 397.753 47.1406 398.195 47.6484C398.729 48.2604 399.178 49.0482 399.543 50.0117C399.921 50.9622 400.109 52.1732 400.109 53.6445V62.7656C400.109 63.6641 400.155 64.3151 400.246 64.7188C400.35 65.1094 400.572 65.4023 400.91 65.5977C401.483 65.9492 402.395 66.125 403.645 66.125V68H391.594V66.125C392.128 66.125 392.538 66.0859 392.824 66.0078C393.124 65.9167 393.423 65.7799 393.723 65.5977C394.061 65.4023 394.276 65.1094 394.367 64.7188C394.471 64.3151 394.523 63.6641 394.523 62.7656V54.7188C394.523 53.4818 394.406 52.4987 394.172 51.7695C393.951 51.0404 393.651 50.4935 393.273 50.1289C392.87 49.7253 392.447 49.4583 392.004 49.3281C391.561 49.1849 391.132 49.1133 390.715 49.1133C390.038 49.1133 389.341 49.276 388.625 49.6016C387.909 49.9271 387.258 50.3828 386.672 50.9688C386.099 51.5417 385.676 52.2188 385.402 53V62.7656C385.402 63.6641 385.448 64.3151 385.539 64.7188C385.643 65.1094 385.865 65.4023 386.203 65.5977C386.503 65.7799 386.789 65.9167 387.062 66.0078C387.349 66.0859 387.74 66.125 388.234 66.125V68H376.281V66.125C377.518 66.125 378.423 65.9492 378.996 65.5977C379.335 65.4023 379.549 65.1094 379.641 64.7188C379.745 64.3151 379.797 63.6641 379.797 62.7656V51.6328C379.797 50.7344 379.745 50.0898 379.641 49.6992C379.549 49.2956 379.335 48.9961 378.996 48.8008C378.397 48.4492 377.531 48.2734 376.398 48.2734V46.3984C377.31 46.3984 378.286 46.3724 379.328 46.3203C380.37 46.2552 381.411 46.1641 382.453 46.0469C383.508 45.9167 384.491 45.7669 385.402 45.5977V48.9961ZM413.488 39.5234H415.129V46.3984H421.887V48.7227H415.129V61.7109C415.129 62.5443 415.194 63.1628 415.324 63.5664C415.467 63.9701 415.682 64.3021 415.969 64.5625C416.242 64.8099 416.568 64.9857 416.945 65.0898C417.336 65.194 417.688 65.2461 418 65.2461C418.625 65.2461 419.263 65.0573 419.914 64.6797C420.578 64.3021 421.145 63.8203 421.613 63.2344L422.844 65.3633C421.945 66.3398 420.93 67.1146 419.797 67.6875C418.664 68.2474 417.388 68.5273 415.969 68.5273C414.888 68.5273 413.918 68.3711 413.059 68.0586C412.199 67.7461 411.542 67.3424 411.086 66.8477C410.448 66.1576 409.999 65.3763 409.738 64.5039C409.491 63.6315 409.367 62.5443 409.367 61.2422V48.7227H405.246V46.3984C406.444 46.3854 407.505 46.1771 408.43 45.7734C409.354 45.3568 410.155 44.8099 410.832 44.1328C411.509 43.4557 412.062 42.7201 412.492 41.9258C412.935 41.1185 413.267 40.3177 413.488 39.5234ZM432.57 35.7148C433.247 35.7148 433.859 35.8841 434.406 36.2227C434.953 36.5482 435.389 36.9844 435.715 37.5312C436.053 38.0781 436.223 38.6901 436.223 39.3672C436.223 40.0312 436.053 40.6432 435.715 41.2031C435.389 41.75 434.953 42.1862 434.406 42.5117C433.859 42.8372 433.247 43 432.57 43C431.906 43 431.301 42.8372 430.754 42.5117C430.207 42.1862 429.764 41.75 429.426 41.2031C429.1 40.6432 428.938 40.0312 428.938 39.3672C428.938 38.6901 429.1 38.0781 429.426 37.5312C429.764 36.9844 430.207 36.5482 430.754 36.2227C431.301 35.8841 431.906 35.7148 432.57 35.7148ZM435.578 62.6484C435.578 63.2474 435.598 63.7292 435.637 64.0938C435.689 64.4453 435.773 64.7318 435.891 64.9531C436.008 65.1615 436.171 65.3503 436.379 65.5195C436.652 65.7409 437.023 65.8971 437.492 65.9883C437.961 66.0794 438.573 66.125 439.328 66.125V68H426.086V66.125C426.906 66.125 427.551 66.0794 428.02 65.9883C428.501 65.8971 428.885 65.7409 429.172 65.5195C429.393 65.3503 429.556 65.1615 429.66 64.9531C429.777 64.7318 429.855 64.4453 429.895 64.0938C429.947 63.7292 429.973 63.2474 429.973 62.6484V51.6328C429.973 50.7344 429.921 50.0898 429.816 49.6992C429.725 49.2956 429.51 48.9961 429.172 48.8008C428.872 48.6185 428.501 48.4883 428.059 48.4102C427.629 48.319 427.095 48.2734 426.457 48.2734V46.3984C427.408 46.3984 428.404 46.3724 429.445 46.3203C430.487 46.2552 431.529 46.1641 432.57 46.0469C433.625 45.9167 434.628 45.7669 435.578 45.5977V62.6484ZM452.258 45.5977C452.896 45.5977 453.527 45.6497 454.152 45.7539C454.79 45.8581 455.376 45.9883 455.91 46.1445C456.444 46.3008 456.88 46.4635 457.219 46.6328C457.596 46.8281 457.902 46.9258 458.137 46.9258C458.384 46.9258 458.553 46.8151 458.645 46.5938C458.749 46.3594 458.807 46.0924 458.82 45.793H460.578V53.2734H458.82C458.69 52.8307 458.482 52.3034 458.195 51.6914C457.922 51.0664 457.557 50.474 457.102 49.9141C456.776 49.5104 456.346 49.1523 455.812 48.8398C455.279 48.5143 454.712 48.2539 454.113 48.0586C453.527 47.8633 452.974 47.7656 452.453 47.7656C451.88 47.7656 451.32 47.8242 450.773 47.9414C450.24 48.0586 449.803 48.2279 449.465 48.4492C449.087 48.6966 448.814 48.9831 448.645 49.3086C448.475 49.6211 448.391 49.9857 448.391 50.4023C448.391 50.8971 448.514 51.3333 448.762 51.7109C449.009 52.0755 449.361 52.388 449.816 52.6484C450.103 52.7786 450.441 52.9219 450.832 53.0781C451.223 53.2344 451.62 53.3906 452.023 53.5469C452.427 53.7031 452.785 53.8398 453.098 53.957L454.465 54.4844C454.934 54.6536 455.493 54.8685 456.145 55.1289C456.796 55.3893 457.453 55.6758 458.117 55.9883C458.794 56.2878 459.374 56.6003 459.855 56.9258C460.272 57.1862 460.669 57.5508 461.047 58.0195C461.438 58.4753 461.757 59.0417 462.004 59.7188C462.251 60.3828 462.375 61.1706 462.375 62.082C462.375 62.9414 462.212 63.8008 461.887 64.6602C461.561 65.5195 461.034 66.2357 460.305 66.8086C459.51 67.4206 458.469 67.8958 457.18 68.2344C455.904 68.5859 454.452 68.7617 452.824 68.7617C452.251 68.7617 451.607 68.6966 450.891 68.5664C450.188 68.4492 449.484 68.2865 448.781 68.0781C448.091 67.8828 447.479 67.668 446.945 67.4336C446.724 67.3294 446.522 67.2513 446.34 67.1992C446.158 67.1471 445.982 67.1211 445.812 67.1211C445.617 67.1211 445.448 67.2578 445.305 67.5312C445.174 67.8047 445.096 68.1628 445.07 68.6055H443.176V60.0703H445.07C445.174 60.5521 445.331 61.1641 445.539 61.9062C445.76 62.6354 446.132 63.3451 446.652 64.0352C447.199 64.7383 447.961 65.3177 448.938 65.7734C449.914 66.2161 451.073 66.4375 452.414 66.4375C452.779 66.4375 453.169 66.4115 453.586 66.3594C454.016 66.2943 454.413 66.2161 454.777 66.125C455.155 66.0208 455.448 65.9102 455.656 65.793C456.073 65.5586 456.392 65.2721 456.613 64.9336C456.835 64.582 456.945 64.1393 456.945 63.6055C456.945 63.0586 456.828 62.6094 456.594 62.2578C456.359 61.8932 456.021 61.5807 455.578 61.3203C455.266 61.125 454.875 60.9232 454.406 60.7148C453.951 60.4935 453.495 60.2852 453.039 60.0898C452.583 59.8945 452.193 59.7318 451.867 59.6016L450.266 58.918C449.693 58.6706 449.113 58.4232 448.527 58.1758C447.954 57.9284 447.421 57.6875 446.926 57.4531C446.431 57.2188 446.021 57.0039 445.695 56.8086C444.901 56.3008 444.276 55.6432 443.82 54.8359C443.365 54.0286 443.137 53.0586 443.137 51.9258C443.137 51.1966 443.286 50.4609 443.586 49.7188C443.885 48.9766 444.361 48.2995 445.012 47.6875C445.78 46.9583 446.77 46.431 447.98 46.1055C449.191 45.7669 450.617 45.5977 452.258 45.5977ZM473.527 39.5234H475.168V46.3984H481.926V48.7227H475.168V61.7109C475.168 62.5443 475.233 63.1628 475.363 63.5664C475.507 63.9701 475.721 64.3021 476.008 64.5625C476.281 64.8099 476.607 64.9857 476.984 65.0898C477.375 65.194 477.727 65.2461 478.039 65.2461C478.664 65.2461 479.302 65.0573 479.953 64.6797C480.617 64.3021 481.184 63.8203 481.652 63.2344L482.883 65.3633C481.984 66.3398 480.969 67.1146 479.836 67.6875C478.703 68.2474 477.427 68.5273 476.008 68.5273C474.927 68.5273 473.957 68.3711 473.098 68.0586C472.238 67.7461 471.581 67.3424 471.125 66.8477C470.487 66.1576 470.038 65.3763 469.777 64.5039C469.53 63.6315 469.406 62.5443 469.406 61.2422V48.7227H465.285V46.3984C466.483 46.3854 467.544 46.1771 468.469 45.7734C469.393 45.3568 470.194 44.8099 470.871 44.1328C471.548 43.4557 472.102 42.7201 472.531 41.9258C472.974 41.1185 473.306 40.3177 473.527 39.5234Z" fill="white"/>
</g>
</g>
<defs>
<filter id="filter0_d_102_15" x="5.375" y="53.75" width="725.25" height="168.812" filterUnits="userSpaceOnUse" color-interpolation-filters="sRGB">
<feFlood flood-opacity="0" result="BackgroundImageFix"/>
<feColorMatrix in="SourceAlpha" type="matrix" values="0 0 0 0 0 0 0 0 0 0 0 0 0 0 0 0 0 0 127 0" result="hardAlpha"/>
<feOffset/>
<feGaussianBlur stdDeviation="17.5"/>
<feComposite in2="hardAlpha" operator="out"/>
<feColorMatrix type="matrix" values="0 0 0 0 1 0 0 0 0 1 0 0 0 0 1 0 0 0 1 0"/>
<feBlend mode="normal" in2="BackgroundImageFix" result="effect1_dropShadow_102_15"/>
<feBlend mode="normal" in="SourceGraphic" in2="effect1_dropShadow_102_15" result="shape"/>
</filter>
<filter id="filter1_d_102_15" x="0.402344" y="0.714844" width="517.48" height="107.051" filterUnits="userSpaceOnUse" color-interpolation-filters="sRGB">
<feFlood flood-opacity="0" result="BackgroundImageFix"/>
<feColorMatrix in="SourceAlpha" type="matrix" values="0 0 0 0 0 0 0 0 0 0 0 0 0 0 0 0 0 0 127 0" result="hardAlpha"/>
<feOffset/>
<feGaussianBlur stdDeviation="17.5"/>
<feComposite in2="hardAlpha" operator="out"/>
<feColorMatrix type="matrix" values="0 0 0 0 1 0 0 0 0 1 0 0 0 0 1 0 0 0 0.5 0"/>
<feBlend mode="normal" in2="BackgroundImageFix" result="effect1_dropShadow_102_15"/>
<feBlend mode="normal" in="SourceGraphic" in2="effect1_dropShadow_102_15" result="shape"/>
</filter>
</defs>
</svg>
